<?xml version="1.0" encoding="utf-8"?>
<!-- Generator: Adobe Illustrator 16.0.4, SVG Export Plug-In . SVG Version: 6.00 Build 0)  -->
<!DOCTYPE svg PUBLIC "-//W3C//DTD SVG 1.1//EN" "http://www.w3.org/Graphics/SVG/1.1/DTD/svg11.dtd">
<svg version="1.1" id="Layer_1" xmlns="http://www.w3.org/2000/svg" xmlns:xlink="http://www.w3.org/1999/xlink" x="0px" y="0px"
	 width="841.89px" height="595.28px" viewBox="0 0 841.89 595.28" enable-background="new 0 0 841.89 595.28" xml:space="preserve">
<polygon fill="none" stroke="#58595B" stroke-miterlimit="22.9256" points="358.916,408.753 298.656,304.38 358.916,200.006 
	479.436,200.006 539.696,304.38 479.436,408.753 "/>
<g>
	<g>
		<g>
			<g>
				<path fill="#414042" d="M423.889,240.547c0,0,0.343-0.275,0.958-0.575c0.615-0.306,1.502-0.659,2.584-0.878
					c0.542-0.103,1.129-0.217,1.762-0.203c0.632,0.005,1.314,0.183,2.018,0.338c0.703,0.156,1.424,0.248,2.138,0.15
					c0.717-0.071,1.433-0.286,2.143-0.564c0.71-0.268,1.419-0.559,2.129-0.705c0.71-0.15,1.407-0.303,2.085-0.426
					c1.355-0.257,2.646-0.214,3.757-0.117c1.112,0.111,2.049,0.305,2.709,0.492c0.659,0.181,1.043,0.359,1.043,0.359
					c0.087,0.041,0.125,0.144,0.084,0.23c-0.013,0.028-0.033,0.051-0.057,0.068c0,0-0.346,0.245-0.961,0.542
					c-0.615,0.303-1.501,0.664-2.575,0.975c-1.075,0.297-2.337,0.572-3.716,0.565c-0.688,0.002-1.402-0.022-2.128-0.042
					c-0.725-0.014-1.474-0.172-2.222-0.308c-0.748-0.146-1.49-0.227-2.208-0.167c-0.721,0.034-1.412,0.254-2.076,0.535
					c-0.663,0.28-1.302,0.578-1.923,0.697c-0.62,0.128-1.218,0.122-1.769,0.119c-1.104-0.02-2.04-0.207-2.701-0.396
					c-0.659-0.183-1.046-0.392-1.046-0.392c-0.088-0.047-0.12-0.157-0.073-0.244C423.854,240.581,423.871,240.562,423.889,240.547z"
					/>
			</g>
			<g>
				<path fill="#414042" d="M447.111,238.473c0,0,0.096-0.46,0.344-1.199c0.247-0.739,0.628-1.771,1.196-2.915
					c0.275-0.58,0.579-1.203,0.952-1.819c0.359-0.627,0.729-1.297,1.165-1.945c0.429-0.654,0.881-1.322,1.376-1.97
					c0.48-0.662,1.009-1.299,1.531-1.942c0.543-0.625,1.081-1.254,1.648-1.842c0.548-0.605,1.162-1.137,1.716-1.686
					c0.545-0.556,1.148-1.029,1.701-1.494c0.541-0.475,1.104-0.88,1.626-1.254c1.028-0.759,1.976-1.314,2.659-1.687
					c0.683-0.373,1.118-0.548,1.118-0.548l0.067-0.027c0.072-0.029,0.154,0.006,0.184,0.079c0.021,0.049,0.01,0.103-0.021,0.141
					c0,0-1.04,1.29-2.6,3.224c-1.583,1.915-3.692,4.469-5.803,7.023c-2.148,2.521-4.297,5.043-5.908,6.934
					c-1.634,1.872-2.723,3.12-2.723,3.12c-0.052,0.059-0.141,0.065-0.199,0.014c-0.04-0.035-0.056-0.086-0.046-0.135
					L447.111,238.473z"/>
			</g>
			<g>
				<path fill="#414042" d="M423.568,235.809c0,0,0.343-0.275,0.958-0.575c0.615-0.306,1.502-0.659,2.585-0.878
					c0.541-0.103,1.128-0.217,1.761-0.203c0.633,0.005,1.314,0.183,2.018,0.338c0.704,0.156,1.424,0.248,2.139,0.151
					c0.717-0.072,1.433-0.286,2.143-0.564c0.71-0.269,1.419-0.56,2.129-0.705c0.71-0.151,1.408-0.304,2.086-0.426
					c1.354-0.256,2.645-0.214,3.756-0.116c1.113,0.111,2.05,0.305,2.71,0.492c0.659,0.181,1.043,0.359,1.043,0.359
					c0.087,0.041,0.125,0.144,0.084,0.23c-0.013,0.028-0.033,0.051-0.057,0.068c0,0-0.346,0.245-0.961,0.542
					c-0.616,0.303-1.502,0.664-2.576,0.974c-1.075,0.297-2.336,0.573-3.715,0.565c-0.689,0.002-1.403-0.022-2.129-0.042
					c-0.725-0.014-1.474-0.172-2.222-0.308c-0.748-0.146-1.49-0.227-2.208-0.167c-0.721,0.034-1.413,0.254-2.076,0.535
					c-0.664,0.28-1.303,0.578-1.924,0.697c-0.619,0.128-1.217,0.122-1.769,0.119c-1.104-0.02-2.04-0.207-2.701-0.396
					c-0.659-0.183-1.046-0.392-1.046-0.392c-0.088-0.047-0.12-0.157-0.073-0.244C423.534,235.842,423.551,235.824,423.568,235.809z"
					/>
			</g>
		</g>
		<g>
			<g>
				<path fill="#414042" d="M452.233,264.61c0,0-0.273-0.345-0.567-0.962c-0.302-0.618-0.648-1.507-0.859-2.591
					c-0.099-0.542-0.208-1.13-0.189-1.763c0.009-0.632,0.191-1.313,0.353-2.015s0.259-1.422,0.167-2.137
					c-0.066-0.717-0.275-1.434-0.549-2.146c-0.263-0.712-0.549-1.423-0.688-2.134c-0.146-0.711-0.293-1.41-0.41-2.089
					c-0.247-1.356-0.194-2.646-0.089-3.757c0.119-1.111,0.321-2.046,0.513-2.705c0.187-0.658,0.367-1.041,0.367-1.041
					c0.041-0.087,0.145-0.124,0.23-0.083c0.028,0.013,0.052,0.034,0.068,0.057c0,0,0.242,0.347,0.535,0.965
					c0.299,0.618,0.652,1.506,0.955,2.583c0.289,1.078,0.555,2.341,0.537,3.719c-0.003,0.689-0.032,1.403-0.058,2.128
					c-0.02,0.725-0.184,1.473-0.324,2.219c-0.151,0.747-0.238,1.489-0.185,2.207c0.028,0.721,0.244,1.415,0.521,2.08
					c0.274,0.666,0.567,1.307,0.683,1.929c0.123,0.621,0.112,1.218,0.105,1.77c-0.028,1.104-0.222,2.039-0.417,2.698
					c-0.188,0.658-0.399,1.043-0.399,1.043c-0.048,0.087-0.157,0.119-0.244,0.071C452.267,264.644,452.248,264.627,452.233,264.61z"
					/>
			</g>
			<g>
				<path fill="#414042" d="M450.314,241.161c0,0,1.04-1.29,2.6-3.224c1.583-1.915,3.692-4.469,5.803-7.022
					c2.148-2.521,4.297-5.043,5.908-6.934c1.634-1.872,2.723-3.12,2.723-3.12c0.052-0.059,0.141-0.065,0.199-0.014
					c0.04,0.035,0.056,0.087,0.046,0.135l-0.015,0.071c0,0-0.097,0.459-0.346,1.197c-0.248,0.738-0.631,1.768-1.199,2.912
					c-0.278,0.578-0.579,1.204-0.953,1.819c-0.362,0.625-0.724,1.301-1.176,1.935c-0.444,0.641-0.862,1.337-1.362,1.982
					c-0.48,0.661-1.007,1.3-1.528,1.944c-0.543,0.625-1.078,1.257-1.646,1.845c-0.552,0.601-1.132,1.162-1.701,1.697
					c-0.562,0.542-1.157,1.022-1.713,1.485c-0.541,0.475-1.103,0.882-1.625,1.254c-1.028,0.759-1.979,1.313-2.663,1.685
					c-0.684,0.372-1.12,0.546-1.12,0.546l-0.068,0.027c-0.072,0.029-0.154-0.007-0.183-0.079
					C450.274,241.253,450.284,241.199,450.314,241.161z"/>
			</g>
			<g>
				<path fill="#414042" d="M456.956,264.1c0,0-0.273-0.345-0.567-0.962c-0.302-0.618-0.648-1.507-0.859-2.591
					c-0.099-0.542-0.209-1.13-0.19-1.763c0.01-0.632,0.192-1.313,0.353-2.015c0.162-0.702,0.259-1.422,0.167-2.137
					c-0.066-0.717-0.275-1.434-0.549-2.146c-0.263-0.712-0.549-1.423-0.688-2.134c-0.146-0.71-0.293-1.41-0.411-2.088
					c-0.246-1.357-0.194-2.646-0.088-3.757c0.118-1.112,0.32-2.047,0.512-2.706c0.187-0.658,0.367-1.041,0.367-1.041
					c0.041-0.087,0.145-0.124,0.23-0.083c0.028,0.013,0.052,0.034,0.068,0.057c0,0,0.242,0.347,0.535,0.965
					c0.299,0.618,0.653,1.506,0.955,2.583c0.289,1.078,0.556,2.34,0.538,3.719c-0.003,0.689-0.032,1.403-0.058,2.128
					c-0.02,0.725-0.184,1.473-0.324,2.219c-0.151,0.747-0.238,1.489-0.184,2.207c0.028,0.721,0.243,1.415,0.52,2.08
					c0.274,0.666,0.568,1.307,0.683,1.928c0.123,0.621,0.113,1.219,0.106,1.77c-0.028,1.104-0.223,2.039-0.417,2.697
					c-0.188,0.659-0.399,1.043-0.399,1.043c-0.048,0.087-0.157,0.119-0.244,0.071C456.989,264.134,456.971,264.118,456.956,264.1z"
					/>
			</g>
		</g>
	</g>
	
		<radialGradient id="SVGID_1_" cx="136.3994" cy="131.4536" r="10.8813" gradientTransform="matrix(0.766 0.6428 -0.6428 0.766 455.7925 38.04)" gradientUnits="userSpaceOnUse">
		<stop  offset="0" style="stop-color:#00AEEF"/>
		<stop  offset="0.2166" style="stop-color:#0084CB"/>
		<stop  offset="0.4532" style="stop-color:#005BAB"/>
		<stop  offset="0.6199" style="stop-color:#243E99"/>
		<stop  offset="0.7" style="stop-color:#2E3192"/>
	</radialGradient>
	<circle fill="url(#SVGID_1_)" stroke="#33789E" stroke-miterlimit="22.9256" cx="475.783" cy="226.415" r="10.882"/>
</g>
<linearGradient id="SVGID_2_" gradientUnits="userSpaceOnUse" x1="428.8359" y1="781.5332" x2="483.6083" y2="836.3056" gradientTransform="matrix(1 0 0 1 -53.3525 -528.708)">
	<stop  offset="0" style="stop-color:#4798C5"/>
	<stop  offset="1" style="stop-color:#386A95"/>
</linearGradient>
<path fill="url(#SVGID_2_)" d="M420.023,242.923c-25.971,0-26.25,10.081-26.25,12.156c0,3.148,0,12.594,0,12.594h26.75v3.781
	c0,0-27.853,0-37.375,0c-7.949,0-17.938,4.833-17.938,26.25c0,19.673,7.792,27.28,15.656,27.28c2.335,0,9.344,0,9.344,0
	s0-9.764,0-13.125c0-5.49,2.721-15.655,15.406-15.655c15.909,0,19.971,0,26.53,0c3.902,0,14.906-1.696,14.906-14.406
	c0-13.452,0-17.89,0-24.219C447.055,254.426,446.516,242.923,420.023,242.923z M405.273,251.392c2.662,0,4.813,2.15,4.813,4.813
	c0,2.661-2.151,4.813-4.813,4.813s-4.813-2.151-4.813-4.813C400.46,253.542,402.611,251.392,405.273,251.392z"/>
<linearGradient id="SVGID_3_" gradientUnits="userSpaceOnUse" x1="462.1006" y1="816.5088" x2="520.7227" y2="872.6717" gradientTransform="matrix(1 0 0 1 -53.3525 -528.708)">
	<stop  offset="0" style="stop-color:#FAE6BA"/>
	<stop  offset="1" style="stop-color:#FFC433"/>
</linearGradient>
<path fill="url(#SVGID_3_)" d="M420.397,352.923c25.958,0,26.283-10.271,26.283-12.155c0-3.148,0-12.595,0-12.595h-26.783v-3.78
	c0,0,28.033,0,37.375,0c8.01,0,17.938-4.955,17.938-26.25c0-23.322-10.538-27.281-15.655-27.281c-2.337,0-9.345,0-9.345,0
	s0,10.216,0,13.125c0,5.491-2.631,15.657-15.405,15.657c-15.911,0-19.477,0-26.533,0c-3.892,0-14.906,1.896-14.906,14.405
	c0,14.476,0,18.265,0,24.22C393.366,343.497,396.562,352.923,420.397,352.923z M435.148,344.454c-2.662,0-4.813-2.151-4.813-4.813
	s2.149-4.812,4.813-4.812c2.66,0,4.812,2.15,4.812,4.812S437.809,344.454,435.148,344.454z"/>
<g>
	<g>
		<g>
			<g>
				<path fill="#414042" d="M449.907,332.951c-0.001,0,0.238,0.369,0.472,1.014c0.239,0.644,0.498,1.562,0.604,2.662
					c0.045,0.549,0.098,1.145,0.018,1.772c-0.07,0.628-0.318,1.288-0.547,1.972c-0.229,0.683-0.395,1.39-0.373,2.11
					c-0.004,0.721,0.135,1.454,0.338,2.189c0.192,0.734,0.408,1.47,0.478,2.19c0.076,0.723,0.155,1.432,0.206,2.119
					c0.114,1.374-0.062,2.652-0.276,3.748c-0.227,1.095-0.518,2.006-0.772,2.643c-0.249,0.637-0.467,1-0.466,1
					c-0.05,0.082-0.156,0.109-0.238,0.061c-0.026-0.017-0.048-0.039-0.062-0.064c0.001,0-0.207-0.369-0.438-1.013
					c-0.237-0.644-0.504-1.562-0.7-2.663c-0.183-1.101-0.325-2.383-0.174-3.754c0.07-0.686,0.169-1.393,0.264-2.112
					c0.09-0.72,0.325-1.448,0.538-2.177c0.223-0.729,0.382-1.459,0.397-2.18c0.042-0.72-0.105-1.431-0.315-2.12
					c-0.209-0.688-0.438-1.355-0.492-1.985c-0.062-0.63,0.006-1.224,0.066-1.771c0.135-1.096,0.419-2.008,0.676-2.645
					c0.251-0.637,0.5-1,0.499-1c0.057-0.082,0.169-0.103,0.251-0.047C449.877,332.914,449.895,332.933,449.907,332.951z"/>
			</g>
			<g>
				<path fill="#414042" d="M449.545,356.266c-0.001,0,0.447,0.143,1.155,0.466c0.709,0.323,1.695,0.81,2.773,1.495
					c0.548,0.334,1.137,0.701,1.71,1.137c0.586,0.424,1.214,0.86,1.812,1.361c0.604,0.496,1.223,1.015,1.815,1.575
					c0.607,0.546,1.186,1.139,1.771,1.726c0.564,0.605,1.134,1.206,1.659,1.832c0.545,0.607,1.01,1.273,1.498,1.882
					c0.495,0.601,0.902,1.251,1.308,1.849c0.416,0.588,0.761,1.191,1.078,1.748c0.646,1.102,1.101,2.103,1.399,2.82
					c0.3,0.719,0.428,1.17,0.428,1.17l0.021,0.07c0.021,0.074-0.022,0.152-0.098,0.174c-0.051,0.015-0.104,0-0.138-0.035
					c0,0-1.174-1.17-2.935-2.923c-1.739-1.774-4.059-4.14-6.378-6.505c-2.283-2.399-4.566-4.799-6.279-6.6
					c-1.69-1.82-2.818-3.035-2.818-3.035c-0.053-0.057-0.049-0.146,0.008-0.199c0.039-0.035,0.092-0.045,0.139-0.031
					L449.545,356.266z"/>
			</g>
			<g>
				<path fill="#414042" d="M454.654,333.129c-0.001,0,0.237,0.369,0.471,1.013c0.24,0.644,0.499,1.562,0.604,2.662
					c0.045,0.55,0.098,1.146,0.018,1.772c-0.07,0.629-0.318,1.289-0.547,1.972s-0.396,1.39-0.373,2.11
					c-0.004,0.721,0.135,1.455,0.337,2.189c0.192,0.735,0.408,1.471,0.479,2.191c0.075,0.723,0.154,1.433,0.205,2.119
					c0.114,1.375-0.063,2.652-0.276,3.748c-0.227,1.096-0.519,2.006-0.773,2.643c-0.249,0.638-0.467,1-0.466,1
					c-0.05,0.083-0.156,0.109-0.238,0.061c-0.026-0.016-0.048-0.039-0.062-0.064c0.001,0-0.207-0.369-0.438-1.012
					c-0.237-0.645-0.503-1.562-0.699-2.664c-0.184-1.101-0.325-2.383-0.174-3.754c0.07-0.686,0.169-1.393,0.265-2.112
					c0.09-0.72,0.325-1.448,0.538-2.177c0.223-0.729,0.381-1.459,0.397-2.18c0.042-0.721-0.105-1.432-0.315-2.121
					c-0.209-0.688-0.438-1.355-0.492-1.984c-0.062-0.631,0.007-1.225,0.066-1.772c0.136-1.097,0.42-2.007,0.677-2.645
					c0.251-0.638,0.5-0.999,0.499-0.999c0.057-0.082,0.169-0.104,0.251-0.047C454.624,333.092,454.642,333.109,454.654,333.129z"/>
			</g>
		</g>
		<g>
			<g>
				<path fill="#414042" d="M423.014,358.626c0,0,0.371-0.235,1.017-0.464c0.646-0.235,1.565-0.486,2.667-0.584
					c0.549-0.041,1.145-0.088,1.772-0.004c0.628,0.075,1.286,0.328,1.967,0.561c0.682,0.234,1.388,0.406,2.108,0.391
					c0.721,0.008,1.455-0.125,2.191-0.322c0.736-0.187,1.473-0.396,2.194-0.461c0.722-0.07,1.433-0.145,2.12-0.189
					c1.375-0.104,2.652,0.083,3.746,0.305c1.093,0.234,2.002,0.532,2.637,0.792c0.635,0.254,0.996,0.474,0.996,0.474
					c0.082,0.051,0.108,0.156,0.059,0.238c-0.017,0.027-0.039,0.048-0.064,0.062c0,0-0.371,0.204-1.016,0.431
					c-0.646,0.232-1.566,0.491-2.668,0.68c-1.103,0.175-2.387,0.308-3.756,0.146c-0.685-0.074-1.392-0.179-2.109-0.279
					c-0.719-0.096-1.446-0.336-2.174-0.555c-0.727-0.229-1.455-0.393-2.176-0.414c-0.72-0.047-1.432,0.095-2.123,0.299
					c-0.69,0.205-1.358,0.43-1.988,0.479c-0.631,0.057-1.225-0.016-1.771-0.08c-1.096-0.144-2.004-0.434-2.639-0.696
					c-0.636-0.256-0.996-0.507-0.996-0.507c-0.082-0.057-0.102-0.169-0.045-0.25C422.977,358.655,422.994,358.639,423.014,358.626z"
					/>
			</g>
			<g>
				<path fill="#414042" d="M446.535,359.17c0,0,1.173,1.168,2.934,2.922c1.74,1.773,4.059,4.139,6.378,6.504
					c2.283,2.4,4.566,4.801,6.278,6.602c1.691,1.82,2.818,3.034,2.818,3.034c0.054,0.058,0.051,0.146-0.007,0.2
					c-0.039,0.035-0.093,0.045-0.14,0.03l-0.068-0.022c0,0-0.447-0.145-1.154-0.469c-0.708-0.323-1.692-0.812-2.771-1.497
					c-0.545-0.337-1.136-0.701-1.709-1.138c-0.583-0.426-1.219-0.855-1.802-1.371c-0.59-0.51-1.24-0.998-1.828-1.562
					c-0.607-0.547-1.188-1.137-1.774-1.723c-0.565-0.605-1.137-1.204-1.662-1.83c-0.539-0.613-1.037-1.248-1.511-1.869
					c-0.479-0.616-0.896-1.258-1.297-1.859c-0.416-0.588-0.763-1.189-1.077-1.748c-0.647-1.102-1.1-2.104-1.397-2.824
					c-0.299-0.719-0.426-1.172-0.427-1.172l-0.02-0.069c-0.021-0.075,0.022-0.153,0.098-0.175
					C446.447,359.119,446.5,359.135,446.535,359.17z"/>
			</g>
			<g>
				<path fill="#414042" d="M423.027,363.377c0,0,0.371-0.236,1.017-0.465c0.646-0.234,1.565-0.486,2.666-0.584
					c0.55-0.041,1.146-0.088,1.773-0.004c0.628,0.075,1.286,0.328,1.967,0.561c0.682,0.234,1.388,0.406,2.108,0.39
					c0.721,0.009,1.455-0.124,2.191-0.321c0.736-0.188,1.473-0.397,2.194-0.462c0.722-0.07,1.433-0.145,2.12-0.19
					c1.375-0.104,2.652,0.084,3.746,0.305c1.093,0.234,2.002,0.533,2.637,0.792c0.635,0.254,0.996,0.474,0.996,0.474
					c0.082,0.051,0.108,0.156,0.059,0.238c-0.017,0.027-0.039,0.048-0.064,0.062c0,0-0.371,0.204-1.016,0.431
					c-0.646,0.233-1.566,0.492-2.668,0.681c-1.103,0.174-2.387,0.307-3.756,0.146c-0.685-0.075-1.392-0.179-2.109-0.28
					c-0.719-0.095-1.446-0.336-2.174-0.553c-0.727-0.229-1.455-0.393-2.176-0.414c-0.72-0.047-1.432,0.094-2.123,0.299
					c-0.689,0.204-1.358,0.43-1.988,0.479c-0.631,0.057-1.224-0.016-1.771-0.08c-1.096-0.144-2.004-0.434-2.639-0.695
					c-0.636-0.256-0.996-0.508-0.996-0.508c-0.082-0.057-0.102-0.168-0.045-0.25C422.99,363.406,423.008,363.389,423.027,363.377z"
					/>
			</g>
		</g>
	</g>
	
		<radialGradient id="SVGID_4_" cx="187.3809" cy="-100.8486" r="10.8813" gradientTransform="matrix(-0.7193 0.6947 -0.6947 -0.7193 523.2734 183.3301)" gradientUnits="userSpaceOnUse">
		<stop  offset="0" style="stop-color:#F9ED32"/>
		<stop  offset="0.0943" style="stop-color:#FBEE2B"/>
		<stop  offset="0.7" style="stop-color:#FFF200"/>
	</radialGradient>
	<circle fill="url(#SVGID_4_)" stroke="#D9D850" stroke-miterlimit="22.9256" cx="458.538" cy="386.04" r="10.882"/>
</g>
<g>
	<g>
		<g>
			<g>
				<path fill="#414042" d="M413.901,356.062c0-0.001-0.377,0.225-1.029,0.436c-0.652,0.217-1.579,0.443-2.681,0.51
					c-0.551,0.026-1.147,0.059-1.772-0.043c-0.625-0.094-1.276-0.364-1.951-0.615c-0.675-0.253-1.375-0.443-2.097-0.447
					c-0.72-0.029-1.458,0.084-2.199,0.262c-0.741,0.166-1.483,0.355-2.207,0.4c-0.724,0.051-1.436,0.105-2.125,0.133
					c-1.377,0.065-2.648-0.156-3.735-0.408c-1.086-0.264-1.987-0.587-2.614-0.863c-0.628-0.271-0.983-0.502-0.983-0.502
					c-0.081-0.052-0.104-0.159-0.051-0.239c0.017-0.026,0.04-0.046,0.066-0.06c0,0,0.376-0.195,1.027-0.404
					c0.651-0.214,1.579-0.448,2.686-0.605c1.106-0.145,2.393-0.242,3.757-0.043c0.683,0.094,1.386,0.217,2.102,0.338
					c0.715,0.114,1.436,0.375,2.157,0.613c0.721,0.248,1.445,0.432,2.164,0.473c0.718,0.066,1.434-0.055,2.13-0.241
					c0.696-0.185,1.37-0.392,2.001-0.423c0.632-0.04,1.223,0.049,1.769,0.129c1.091,0.173,1.991,0.488,2.619,0.768
					c0.628,0.273,0.981,0.534,0.981,0.533c0.08,0.06,0.097,0.172,0.038,0.252C413.939,356.033,413.921,356.051,413.901,356.062z"/>
			</g>
			<g>
				<path fill="#414042" d="M390.616,354.886c0,0-0.159,0.442-0.507,1.14c-0.348,0.696-0.868,1.666-1.591,2.719
					c-0.354,0.536-0.741,1.111-1.196,1.669c-0.443,0.571-0.902,1.184-1.424,1.765c-0.516,0.587-1.057,1.186-1.637,1.759
					c-0.567,0.589-1.18,1.146-1.786,1.71c-0.625,0.543-1.246,1.092-1.89,1.595c-0.626,0.522-1.309,0.964-1.933,1.431
					c-0.618,0.475-1.281,0.859-1.893,1.243c-0.602,0.396-1.217,0.718-1.784,1.016c-1.124,0.608-2.14,1.026-2.869,1.301
					c-0.728,0.274-1.184,0.387-1.184,0.387l-0.07,0.018c-0.076,0.019-0.152-0.027-0.171-0.103c-0.013-0.053,0.005-0.104,0.041-0.138
					c0,0,1.209-1.132,3.023-2.831c1.833-1.676,4.278-3.911,6.723-6.146c2.479-2.197,4.957-4.396,6.816-6.045
					c1.878-1.626,3.131-2.71,3.131-2.71c0.059-0.052,0.148-0.045,0.199,0.015c0.035,0.039,0.043,0.094,0.026,0.14L390.616,354.886z"
					/>
			</g>
			<g>
				<path fill="#414042" d="M413.559,360.801c0-0.001-0.377,0.225-1.029,0.436c-0.652,0.217-1.579,0.443-2.682,0.51
					c-0.551,0.025-1.147,0.058-1.772-0.044c-0.625-0.093-1.276-0.364-1.951-0.615c-0.675-0.253-1.375-0.444-2.097-0.446
					c-0.72-0.029-1.458,0.083-2.2,0.26c-0.741,0.167-1.483,0.357-2.207,0.401c-0.724,0.051-1.437,0.104-2.125,0.132
					c-1.377,0.066-2.649-0.156-3.736-0.408c-1.086-0.264-1.987-0.587-2.614-0.863c-0.628-0.271-0.983-0.502-0.983-0.502
					c-0.081-0.052-0.104-0.159-0.051-0.239c0.017-0.026,0.04-0.046,0.066-0.06c0,0,0.376-0.195,1.027-0.403
					c0.652-0.215,1.579-0.448,2.686-0.606c1.106-0.145,2.394-0.242,3.758-0.043c0.683,0.094,1.387,0.217,2.102,0.338
					c0.716,0.115,1.436,0.376,2.157,0.613c0.721,0.249,1.444,0.433,2.164,0.475c0.718,0.066,1.434-0.056,2.13-0.242
					c0.696-0.184,1.371-0.391,2.001-0.422c0.632-0.041,1.223,0.049,1.769,0.129c1.091,0.173,1.992,0.488,2.619,0.768
					c0.628,0.273,0.982,0.534,0.982,0.533c0.08,0.06,0.097,0.172,0.038,0.252C413.597,360.771,413.579,360.789,413.559,360.801z"/>
			</g>
		</g>
		<g>
			<g>
				<path fill="#414042" d="M389.181,328.289c0,0,0.222,0.38,0.428,1.033c0.212,0.652,0.432,1.582,0.49,2.685
					c0.022,0.551,0.049,1.147-0.057,1.772c-0.097,0.624-0.373,1.273-0.63,1.945c-0.257,0.674-0.454,1.373-0.462,2.094
					c-0.034,0.72,0.073,1.459,0.245,2.201c0.161,0.742,0.345,1.486,0.385,2.209c0.045,0.725,0.094,1.438,0.116,2.126
					c0.055,1.378-0.176,2.647-0.436,3.733c-0.272,1.084-0.602,1.981-0.884,2.607c-0.276,0.625-0.508,0.979-0.508,0.979
					c-0.053,0.08-0.16,0.104-0.24,0.051c-0.026-0.018-0.046-0.041-0.06-0.066c0,0-0.191-0.378-0.396-1.031
					c-0.209-0.652-0.437-1.582-0.586-2.689c-0.137-1.107-0.224-2.396-0.015-3.758c0.099-0.682,0.227-1.385,0.353-2.1
					c0.121-0.715,0.387-1.434,0.63-2.152c0.254-0.719,0.443-1.441,0.49-2.16c0.072-0.718-0.044-1.435-0.225-2.132
					c-0.18-0.698-0.381-1.373-0.408-2.005c-0.036-0.632,0.058-1.223,0.142-1.768c0.181-1.09,0.503-1.987,0.788-2.613
					c0.278-0.625,0.542-0.977,0.541-0.977c0.06-0.08,0.173-0.097,0.252-0.037C389.153,328.252,389.169,328.27,389.181,328.289z"/>
			</g>
			<g>
				<path fill="#414042" d="M387.818,351.777c0,0-1.209,1.133-3.023,2.831c-1.834,1.677-4.278,3.911-6.723,6.146
					c-2.479,2.198-4.957,4.396-6.815,6.044c-1.879,1.627-3.131,2.711-3.131,2.711c-0.059,0.051-0.148,0.045-0.2-0.014
					c-0.035-0.041-0.042-0.094-0.026-0.141l0.024-0.068c0,0,0.16-0.441,0.509-1.137c0.348-0.696,0.871-1.663,1.593-2.717
					c0.355-0.533,0.74-1.111,1.196-1.669c0.446-0.568,0.898-1.188,1.434-1.753c0.529-0.572,1.04-1.204,1.625-1.772
					c0.568-0.588,1.178-1.147,1.784-1.713c0.625-0.544,1.243-1.095,1.887-1.598c0.631-0.518,1.283-0.993,1.92-1.444
					c0.632-0.458,1.289-0.851,1.903-1.231c0.603-0.395,1.214-0.72,1.784-1.016c1.124-0.608,2.142-1.024,2.871-1.298
					c0.729-0.273,1.186-0.385,1.186-0.385l0.071-0.018c0.076-0.019,0.152,0.027,0.171,0.104
					C387.871,351.691,387.854,351.744,387.818,351.777z"/>
			</g>
			<g>
				<path fill="#414042" d="M384.434,328.137c0,0,0.222,0.379,0.428,1.033c0.212,0.652,0.432,1.582,0.49,2.684
					c0.022,0.552,0.049,1.148-0.057,1.773c-0.097,0.624-0.373,1.273-0.629,1.945c-0.258,0.674-0.454,1.373-0.462,2.094
					c-0.034,0.72,0.073,1.459,0.245,2.201c0.161,0.742,0.345,1.486,0.385,2.209c0.045,0.725,0.094,1.438,0.116,2.126
					c0.055,1.378-0.176,2.647-0.436,3.732c-0.272,1.085-0.602,1.982-0.883,2.608c-0.276,0.625-0.509,0.979-0.508,0.979
					c-0.053,0.08-0.16,0.104-0.24,0.051c-0.026-0.018-0.046-0.041-0.06-0.066c0,0-0.191-0.378-0.396-1.031
					c-0.21-0.652-0.437-1.582-0.586-2.689c-0.136-1.107-0.224-2.396-0.015-3.758c0.099-0.682,0.227-1.385,0.353-2.1
					c0.12-0.715,0.386-1.434,0.629-2.152c0.254-0.719,0.443-1.441,0.49-2.16c0.072-0.718-0.045-1.435-0.226-2.132
					c-0.18-0.697-0.381-1.373-0.408-2.005c-0.036-0.632,0.058-1.223,0.141-1.768c0.182-1.089,0.503-1.987,0.788-2.613
					c0.278-0.625,0.542-0.977,0.541-0.977c0.06-0.08,0.173-0.097,0.252-0.037C384.406,328.1,384.422,328.117,384.434,328.137z"/>
			</g>
		</g>
	</g>
	
		<radialGradient id="SVGID_5_" cx="-296.561" cy="167.9487" r="10.8811" gradientTransform="matrix(-0.6691 -0.7431 0.7431 -0.6691 37.2959 254.8281)" gradientUnits="userSpaceOnUse">
		<stop  offset="0" style="stop-color:#F17F62"/>
		<stop  offset="0.1256" style="stop-color:#F17354"/>
		<stop  offset="0.5128" style="stop-color:#EF4A2E"/>
		<stop  offset="0.7" style="stop-color:#EE3624"/>
	</radialGradient>
	<circle fill="url(#SVGID_5_)" stroke="#9E3332" stroke-miterlimit="22.9256" cx="360.545" cy="362.835" r="10.882"/>
</g>
<g>
	<g>
		<g>
			<g>
				<path fill="#414042" d="M363.611,293.012c0,0-0.232-0.373-0.454-1.021c-0.229-0.647-0.471-1.57-0.557-2.671
					c-0.036-0.55-0.078-1.147,0.013-1.773c0.082-0.626,0.341-1.282,0.581-1.961c0.241-0.679,0.419-1.383,0.41-2.104
					c0.017-0.72-0.109-1.457-0.299-2.195c-0.18-0.738-0.382-1.477-0.44-2.199c-0.063-0.723-0.13-1.435-0.169-2.122
					c-0.09-1.376,0.109-2.651,0.342-3.742c0.246-1.091,0.553-1.997,0.818-2.629c0.26-0.633,0.484-0.992,0.484-0.992
					c0.051-0.081,0.158-0.106,0.239-0.055c0.026,0.016,0.047,0.039,0.061,0.065c0,0,0.201,0.372,0.421,1.02
					c0.227,0.648,0.477,1.571,0.653,2.675c0.165,1.104,0.284,2.389,0.109,3.756c-0.082,0.684-0.193,1.39-0.301,2.107
					c-0.102,0.718-0.351,1.442-0.576,2.167c-0.235,0.725-0.407,1.452-0.436,2.172c-0.054,0.719,0.081,1.433,0.279,2.125
					c0.197,0.693,0.415,1.363,0.458,1.994c0.052,0.631-0.027,1.224-0.097,1.771c-0.154,1.094-0.454,2-0.722,2.632
					c-0.262,0.633-0.517,0.991-0.517,0.991c-0.058,0.081-0.17,0.1-0.251,0.042C363.64,293.05,363.624,293.031,363.611,293.012z"/>
			</g>
			<g>
				<path fill="#414042" d="M364.38,269.709c0,0-0.445-0.151-1.147-0.487c-0.703-0.335-1.681-0.839-2.747-1.543
					c-0.542-0.344-1.123-0.722-1.689-1.167c-0.579-0.433-1.199-0.881-1.789-1.393c-0.596-0.506-1.204-1.036-1.788-1.606
					c-0.598-0.557-1.166-1.16-1.741-1.756c-0.554-0.616-1.113-1.227-1.627-1.862c-0.533-0.617-0.987-1.292-1.464-1.908
					c-0.485-0.609-0.881-1.266-1.276-1.871c-0.406-0.595-0.739-1.204-1.047-1.766c-0.627-1.113-1.064-2.122-1.35-2.845
					c-0.287-0.724-0.408-1.177-0.408-1.177l-0.019-0.07c-0.02-0.075,0.025-0.153,0.1-0.173c0.051-0.014,0.104,0.003,0.138,0.039
					c0,0,1.153,1.189,2.883,2.973c1.708,1.804,3.985,4.209,6.263,6.615c2.241,2.439,4.481,4.879,6.162,6.709
					c1.659,1.85,2.765,3.083,2.765,3.083c0.052,0.058,0.047,0.147-0.011,0.2c-0.039,0.035-0.093,0.044-0.139,0.029L364.38,269.709z"
					/>
			</g>
			<g>
				<path fill="#414042" d="M358.868,292.752c0,0-0.232-0.373-0.454-1.021c-0.229-0.648-0.471-1.571-0.557-2.672
					c-0.035-0.551-0.077-1.147,0.013-1.773c0.082-0.627,0.341-1.282,0.581-1.961c0.241-0.679,0.42-1.383,0.411-2.104
					c0.016-0.721-0.109-1.457-0.299-2.195c-0.18-0.738-0.382-1.477-0.439-2.199c-0.063-0.723-0.13-1.434-0.169-2.122
					c-0.089-1.376,0.11-2.651,0.342-3.743c0.246-1.091,0.553-1.997,0.819-2.629c0.26-0.633,0.484-0.992,0.484-0.992
					c0.051-0.081,0.158-0.106,0.239-0.055c0.026,0.016,0.047,0.039,0.061,0.065c0,0,0.201,0.372,0.421,1.02
					c0.226,0.648,0.476,1.571,0.653,2.675c0.164,1.104,0.283,2.389,0.108,3.756c-0.082,0.684-0.193,1.39-0.301,2.107
					c-0.103,0.718-0.351,1.442-0.576,2.168c-0.236,0.725-0.407,1.452-0.436,2.172c-0.054,0.719,0.08,1.433,0.278,2.125
					c0.197,0.693,0.415,1.363,0.458,1.994c0.052,0.631-0.027,1.223-0.097,1.771c-0.154,1.094-0.454,2-0.723,2.632
					c-0.262,0.633-0.517,0.991-0.517,0.991c-0.058,0.081-0.17,0.1-0.251,0.042C358.897,292.791,358.88,292.772,358.868,292.752z"/>
			</g>
		</g>
		<g>
			<g>
				<path fill="#414042" d="M390.948,267.811c0,0-0.375,0.229-1.024,0.446c-0.649,0.224-1.574,0.459-2.676,0.537
					c-0.551,0.032-1.147,0.069-1.773-0.026c-0.626-0.086-1.28-0.351-1.957-0.596c-0.677-0.246-1.379-0.43-2.101-0.426
					c-0.72-0.021-1.457,0.099-2.197,0.283c-0.739,0.174-1.479,0.371-2.202,0.423c-0.723,0.058-1.435,0.119-2.124,0.153
					c-1.376,0.079-2.65-0.13-3.739-0.37c-1.089-0.254-1.992-0.568-2.623-0.838c-0.631-0.265-0.988-0.491-0.988-0.491
					c-0.081-0.051-0.105-0.158-0.054-0.239c0.017-0.026,0.04-0.047,0.065-0.061c0,0,0.374-0.198,1.023-0.414
					c0.649-0.221,1.575-0.464,2.68-0.633c1.104-0.156,2.391-0.266,3.757-0.081c0.684,0.087,1.389,0.203,2.105,0.317
					c0.717,0.107,1.439,0.361,2.163,0.592c0.723,0.241,1.449,0.418,2.168,0.452c0.719,0.06,1.433-0.07,2.127-0.263
					c0.694-0.192,1.366-0.405,1.997-0.442c0.631-0.047,1.223,0.037,1.77,0.11c1.092,0.163,1.996,0.469,2.626,0.742
					c0.63,0.267,0.987,0.524,0.987,0.524c0.081,0.058,0.099,0.171,0.041,0.251C390.986,267.782,390.967,267.798,390.948,267.811z"/>
			</g>
			<g>
				<path fill="#414042" d="M367.44,266.858c0,0-1.153-1.189-2.883-2.973c-1.708-1.804-3.986-4.21-6.263-6.615
					c-2.241-2.439-4.481-4.879-6.162-6.709c-1.659-1.85-2.765-3.083-2.765-3.083c-0.052-0.058-0.047-0.147,0.011-0.199
					c0.039-0.036,0.093-0.044,0.14-0.029l0.069,0.024c0,0,0.444,0.152,1.146,0.488c0.702,0.336,1.678,0.842,2.744,1.545
					c0.54,0.346,1.124,0.721,1.689,1.167c0.576,0.436,1.204,0.877,1.778,1.403c0.582,0.519,1.222,1.018,1.801,1.594
					c0.598,0.557,1.168,1.157,1.744,1.753c0.555,0.615,1.116,1.224,1.63,1.859c0.528,0.622,1.015,1.265,1.478,1.895
					c0.469,0.624,0.873,1.273,1.265,1.881c0.405,0.596,0.741,1.202,1.046,1.767c0.628,1.113,1.062,2.123,1.348,2.848
					c0.286,0.724,0.406,1.179,0.406,1.179l0.019,0.071c0.02,0.075-0.025,0.152-0.101,0.172
					C367.527,266.909,367.475,266.893,367.44,266.858z"/>
			</g>
			<g>
				<path fill="#414042" d="M391.018,263.062c0,0-0.375,0.229-1.024,0.446c-0.649,0.224-1.574,0.459-2.676,0.537
					c-0.551,0.031-1.147,0.069-1.773-0.026c-0.626-0.086-1.28-0.351-1.957-0.596c-0.677-0.246-1.38-0.43-2.101-0.426
					c-0.72-0.021-1.457,0.099-2.197,0.283c-0.739,0.174-1.479,0.371-2.202,0.423c-0.724,0.058-1.436,0.119-2.124,0.153
					c-1.376,0.08-2.65-0.129-3.739-0.37c-1.089-0.253-1.993-0.567-2.623-0.838c-0.631-0.265-0.988-0.491-0.988-0.491
					c-0.081-0.051-0.105-0.158-0.054-0.239c0.017-0.026,0.04-0.047,0.065-0.061c0,0,0.374-0.198,1.023-0.414
					c0.649-0.221,1.575-0.464,2.68-0.633c1.105-0.156,2.391-0.266,3.757-0.081c0.683,0.087,1.388,0.203,2.105,0.317
					c0.717,0.107,1.439,0.361,2.163,0.592c0.723,0.241,1.449,0.417,2.168,0.452c0.719,0.06,1.433-0.07,2.127-0.263
					c0.694-0.192,1.366-0.405,1.997-0.443c0.631-0.046,1.223,0.037,1.77,0.111c1.093,0.162,1.997,0.469,2.627,0.742
					c0.63,0.267,0.987,0.524,0.987,0.524c0.081,0.058,0.099,0.171,0.041,0.251C391.056,263.033,391.038,263.049,391.018,263.062z"/>
			</g>
		</g>
	</g>
	
		<radialGradient id="SVGID_6_" cx="-91.5195" cy="313.752" r="10.8816" gradientTransform="matrix(0.7314 -0.682 0.682 0.7314 192.8623 -33.0981)" gradientUnits="userSpaceOnUse">
		<stop  offset="0" style="stop-color:#B2DCBD"/>
		<stop  offset="0.0212" style="stop-color:#B0DBB8"/>
		<stop  offset="0.3541" style="stop-color:#9DCF79"/>
		<stop  offset="0.5877" style="stop-color:#92C94D"/>
		<stop  offset="0.7" style="stop-color:#8DC63F"/>
	</radialGradient>
	<circle fill="url(#SVGID_6_)" stroke="#6E9F31" stroke-miterlimit="22.9256" cx="339.907" cy="258.782" r="10.882"/>
</g>
<g>
	<g>
		<g>
			<g>
				<path fill="#414042" d="M478.732,299.833c-0.001,0,0.263,0.352,0.541,0.978c0.283,0.625,0.605,1.523,0.787,2.613
					c0.084,0.545,0.178,1.135,0.142,1.768c-0.026,0.631-0.228,1.307-0.407,2.004c-0.181,0.697-0.298,1.414-0.226,2.132
					c0.047,0.719,0.236,1.441,0.489,2.16c0.244,0.72,0.51,1.438,0.631,2.152c0.125,0.714,0.254,1.417,0.354,2.099
					c0.209,1.363,0.121,2.65-0.016,3.758c-0.148,1.108-0.376,2.037-0.586,2.691c-0.203,0.652-0.396,1.029-0.395,1.029
					c-0.044,0.086-0.148,0.12-0.234,0.076c-0.027-0.014-0.05-0.035-0.066-0.059c0.001,0-0.232-0.354-0.508-0.98
					c-0.281-0.625-0.611-1.522-0.884-2.607c-0.26-1.084-0.491-2.354-0.436-3.732c0.022-0.688,0.071-1.4,0.116-2.125
					c0.039-0.725,0.223-1.467,0.385-2.209c0.171-0.743,0.278-1.482,0.244-2.202c-0.009-0.722-0.205-1.42-0.463-2.093
					c-0.257-0.673-0.532-1.322-0.63-1.946c-0.106-0.624-0.079-1.222-0.058-1.772c0.059-1.103,0.278-2.031,0.49-2.685
					c0.206-0.653,0.429-1.032,0.428-1.032c0.051-0.086,0.161-0.114,0.247-0.064C478.699,299.798,478.718,299.814,478.732,299.833z"
					/>
			</g>
			<g>
				<path fill="#414042" d="M479.997,323.114c0,0,0.456,0.111,1.186,0.385c0.729,0.272,1.747,0.688,2.871,1.298
					c0.569,0.295,1.182,0.621,1.784,1.016c0.615,0.381,1.271,0.773,1.903,1.231c0.638,0.452,1.29,0.927,1.921,1.444
					c0.644,0.502,1.262,1.053,1.887,1.598c0.605,0.564,1.216,1.124,1.783,1.712c0.586,0.568,1.096,1.2,1.625,1.772
					c0.536,0.565,0.988,1.186,1.434,1.754c0.457,0.557,0.842,1.135,1.197,1.668c0.723,1.054,1.244,2.021,1.593,2.717
					c0.349,0.695,0.509,1.137,0.509,1.137l0.024,0.068c0.026,0.072-0.011,0.154-0.085,0.181c-0.05,0.018-0.104,0.006-0.141-0.026
					c0,0-1.252-1.084-3.131-2.711c-1.858-1.648-4.337-3.846-6.815-6.043c-2.444-2.235-4.89-4.471-6.724-6.146
					c-1.812-1.699-3.022-2.831-3.022-2.831c-0.057-0.054-0.06-0.143-0.007-0.199c0.037-0.038,0.089-0.053,0.137-0.041
					L479.997,323.114z"/>
			</g>
			<g>
				<path fill="#414042" d="M483.479,299.679c0,0,0.264,0.352,0.541,0.978c0.285,0.625,0.606,1.523,0.788,2.613
					c0.083,0.545,0.177,1.136,0.142,1.768c-0.027,0.632-0.229,1.307-0.408,2.005c-0.181,0.697-0.297,1.414-0.225,2.132
					c0.046,0.719,0.235,1.441,0.488,2.16c0.244,0.72,0.51,1.438,0.631,2.152c0.125,0.715,0.254,1.418,0.353,2.1
					c0.21,1.363,0.122,2.65-0.015,3.758c-0.149,1.108-0.377,2.037-0.586,2.691c-0.205,0.652-0.396,1.029-0.396,1.029
					c-0.043,0.086-0.147,0.12-0.232,0.076c-0.027-0.014-0.051-0.035-0.066-0.059c0,0-0.232-0.354-0.509-0.98
					c-0.281-0.625-0.611-1.523-0.884-2.607c-0.26-1.085-0.49-2.355-0.436-3.732c0.022-0.689,0.071-1.402,0.117-2.126
					c0.039-0.724,0.223-1.468,0.385-2.21c0.171-0.742,0.278-1.481,0.244-2.201c-0.009-0.721-0.205-1.42-0.463-2.094
					c-0.256-0.672-0.531-1.321-0.629-1.945c-0.106-0.625-0.08-1.222-0.058-1.773c0.059-1.103,0.278-2.031,0.49-2.685
					c0.206-0.653,0.429-1.032,0.429-1.032c0.05-0.086,0.16-0.114,0.246-0.064C483.447,299.644,483.465,299.66,483.479,299.679z"/>
			</g>
		</g>
		<g>
			<g>
				<path fill="#414042" d="M453.695,327.32c0,0.001,0.354-0.26,0.981-0.533c0.628-0.279,1.528-0.595,2.618-0.768
					c0.547-0.08,1.138-0.169,1.77-0.129c0.631,0.031,1.305,0.238,2.001,0.423c0.696,0.187,1.412,0.308,2.13,0.241
					c0.72-0.041,1.443-0.225,2.164-0.473c0.721-0.238,1.441-0.499,2.157-0.613c0.716-0.121,1.419-0.244,2.103-0.338
					c1.363-0.199,2.65-0.102,3.758,0.043c1.105,0.157,2.033,0.392,2.686,0.605c0.65,0.209,1.027,0.404,1.027,0.404
					c0.084,0.043,0.118,0.148,0.074,0.233c-0.015,0.027-0.035,0.05-0.061,0.065c0,0-0.355,0.23-0.982,0.502
					c-0.628,0.276-1.528,0.6-2.615,0.863c-1.086,0.252-2.358,0.474-3.735,0.408c-0.688-0.027-1.401-0.082-2.124-0.133
					c-0.725-0.045-1.467-0.234-2.207-0.4c-0.742-0.178-1.48-0.291-2.199-0.262c-0.722,0.004-1.422,0.194-2.098,0.447
					c-0.674,0.251-1.325,0.521-1.951,0.615c-0.624,0.102-1.221,0.069-1.771,0.043c-1.104-0.066-2.029-0.293-2.682-0.51
					c-0.651-0.211-1.029-0.437-1.029-0.436c-0.085-0.052-0.113-0.162-0.062-0.248C453.66,327.353,453.676,327.334,453.695,327.32z"
					/>
			</g>
			<g>
				<path fill="#414042" d="M477.197,326.222c0,0,1.252,1.084,3.131,2.71c1.859,1.648,4.338,3.847,6.816,6.045
					c2.444,2.234,4.889,4.47,6.723,6.146c1.814,1.697,3.023,2.83,3.023,2.83c0.057,0.053,0.06,0.143,0.006,0.199
					c-0.035,0.039-0.088,0.053-0.137,0.041l-0.07-0.018c0,0-0.455-0.113-1.184-0.387s-1.744-0.692-2.869-1.301
					c-0.566-0.297-1.182-0.62-1.783-1.016c-0.612-0.384-1.275-0.769-1.894-1.242c-0.624-0.467-1.307-0.908-1.933-1.432
					c-0.645-0.502-1.266-1.051-1.891-1.594c-0.605-0.564-1.219-1.122-1.785-1.711c-0.581-0.572-1.121-1.172-1.637-1.759
					c-0.522-0.581-0.981-1.192-1.425-1.764c-0.455-0.558-0.843-1.133-1.196-1.669c-0.723-1.054-1.243-2.022-1.591-2.719
					c-0.348-0.697-0.507-1.14-0.507-1.14l-0.024-0.068c-0.026-0.073,0.012-0.154,0.085-0.181
					C477.106,326.178,477.16,326.189,477.197,326.222z"/>
			</g>
			<g>
				<path fill="#414042" d="M454.039,332.059c0,0,0.354-0.262,0.982-0.534c0.627-0.279,1.527-0.595,2.619-0.769
					c0.545-0.079,1.137-0.168,1.768-0.128c0.632,0.031,1.307,0.237,2.002,0.423c0.696,0.186,1.412,0.308,2.13,0.24
					c0.72-0.041,1.443-0.225,2.164-0.473c0.722-0.238,1.441-0.499,2.157-0.614c0.715-0.12,1.42-0.243,2.102-0.337
					c1.365-0.199,2.652-0.103,3.758,0.042c1.107,0.157,2.035,0.392,2.686,0.606c0.652,0.209,1.027,0.402,1.027,0.402
					c0.086,0.045,0.119,0.148,0.075,0.234c-0.015,0.027-0.036,0.05-0.06,0.066c0,0-0.355,0.229-0.984,0.5
					c-0.627,0.277-1.527,0.601-2.613,0.865c-1.088,0.252-2.359,0.473-3.736,0.407c-0.688-0.026-1.4-0.081-2.125-0.132
					c-0.723-0.045-1.465-0.234-2.206-0.4c-0.741-0.178-1.479-0.291-2.2-0.262c-0.721,0.004-1.422,0.194-2.096,0.447
					c-0.676,0.252-1.326,0.522-1.951,0.615c-0.625,0.102-1.222,0.07-1.773,0.044c-1.102-0.066-2.029-0.293-2.681-0.51
					c-0.651-0.211-1.028-0.437-1.028-0.437c-0.086-0.051-0.113-0.161-0.062-0.246C454.004,332.09,454.021,332.072,454.039,332.059z"
					/>
			</g>
		</g>
	</g>
	
		<radialGradient id="SVGID_7_" cx="-87.0996" cy="-90.1899" r="10.8816" gradientTransform="matrix(-0.6691 0.7431 -0.7431 -0.6691 380.7402 336.5688)" gradientUnits="userSpaceOnUse">
		<stop  offset="0" style="stop-color:#A7A9AC"/>
		<stop  offset="0.2166" style="stop-color:#8380A4"/>
		<stop  offset="0.4532" style="stop-color:#5B569A"/>
		<stop  offset="0.6199" style="stop-color:#3C3B93"/>
		<stop  offset="0.7" style="stop-color:#2E3192"/>
	</radialGradient>
	<circle fill="url(#SVGID_7_)" stroke="#2C2A70" stroke-miterlimit="22.9256" cx="506.045" cy="332.189" r="10.882"/>
</g>
</svg>
