<?xml version="1.0" encoding="utf-8"?>
<!-- Generator: Adobe Illustrator 16.0.4, SVG Export Plug-In . SVG Version: 6.00 Build 0)  -->
<!DOCTYPE svg PUBLIC "-//W3C//DTD SVG 1.1//EN" "http://www.w3.org/Graphics/SVG/1.1/DTD/svg11.dtd">
<svg version="1.1" id="Layer_1" xmlns="http://www.w3.org/2000/svg" xmlns:xlink="http://www.w3.org/1999/xlink" x="0px" y="0px"
	 width="260px" height="219px" viewBox="288.445 195.14 260 219" enable-background="new 288.445 195.14 260 219"
	 xml:space="preserve">
<polygon fill="none" stroke="#58595B" stroke-miterlimit="22.9256" points="358.916,408.753 298.656,304.38 358.916,200.006
	479.436,200.006 539.696,304.38 479.436,408.753 "/>
<g>
	<g>
		<g>
			<g>
				<path fill="#414042" d="M423.889,240.547c0,0,0.343-0.275,0.958-0.575c0.615-0.306,1.502-0.659,2.584-0.878
					c0.542-0.103,1.129-0.217,1.762-0.203c0.632,0.005,1.314,0.183,2.019,0.338c0.702,0.156,1.424,0.248,2.138,0.15
					c0.717-0.071,1.433-0.286,2.143-0.564c0.71-0.268,1.419-0.559,2.129-0.705c0.71-0.149,1.407-0.303,2.085-0.426
					c1.355-0.257,2.646-0.214,3.758-0.117c1.111,0.111,2.049,0.306,2.709,0.492c0.658,0.181,1.043,0.359,1.043,0.359
					c0.087,0.041,0.125,0.144,0.084,0.229c-0.014,0.028-0.033,0.051-0.058,0.068c0,0-0.346,0.245-0.961,0.542
					c-0.614,0.303-1.501,0.664-2.575,0.975c-1.074,0.297-2.337,0.572-3.716,0.565c-0.688,0.002-1.401-0.022-2.128-0.042
					c-0.725-0.014-1.474-0.172-2.222-0.309c-0.748-0.146-1.49-0.227-2.208-0.167c-0.721,0.034-1.412,0.255-2.076,0.535
					c-0.663,0.28-1.302,0.578-1.923,0.697c-0.62,0.128-1.218,0.122-1.77,0.119c-1.104-0.021-2.04-0.207-2.7-0.396
					c-0.659-0.183-1.046-0.392-1.046-0.392c-0.089-0.047-0.12-0.157-0.073-0.244C423.854,240.581,423.871,240.562,423.889,240.547z"
					/>
			</g>
			<g>
				<path fill="#414042" d="M447.111,238.473c0,0,0.096-0.46,0.344-1.199c0.247-0.738,0.628-1.771,1.196-2.915
					c0.275-0.58,0.579-1.203,0.952-1.818c0.359-0.627,0.729-1.297,1.165-1.945c0.429-0.654,0.881-1.322,1.376-1.97
					c0.479-0.662,1.009-1.299,1.531-1.942c0.543-0.625,1.081-1.254,1.647-1.842c0.548-0.605,1.162-1.137,1.716-1.687
					c0.546-0.556,1.148-1.028,1.701-1.493c0.541-0.476,1.104-0.881,1.626-1.255c1.028-0.759,1.977-1.313,2.659-1.687
					c0.684-0.373,1.118-0.548,1.118-0.548l0.067-0.027c0.071-0.028,0.153,0.006,0.184,0.079c0.021,0.049,0.01,0.104-0.021,0.141
					c0,0-1.04,1.29-2.6,3.225c-1.583,1.915-3.692,4.469-5.803,7.022c-2.148,2.521-4.297,5.043-5.908,6.935
					c-1.634,1.872-2.723,3.12-2.723,3.12c-0.053,0.059-0.142,0.064-0.199,0.014c-0.04-0.035-0.056-0.086-0.046-0.135
					L447.111,238.473z"/>
			</g>
			<g>
				<path fill="#414042" d="M423.568,235.809c0,0,0.343-0.274,0.958-0.575c0.615-0.306,1.502-0.658,2.585-0.878
					c0.541-0.103,1.128-0.217,1.761-0.203c0.634,0.006,1.314,0.184,2.019,0.339s1.424,0.247,2.139,0.15
					c0.717-0.072,1.434-0.286,2.144-0.563c0.71-0.27,1.419-0.561,2.129-0.705c0.71-0.151,1.408-0.305,2.086-0.427
					c1.354-0.256,2.645-0.214,3.756-0.115c1.113,0.11,2.05,0.305,2.71,0.491c0.659,0.182,1.043,0.359,1.043,0.359
					c0.087,0.041,0.125,0.145,0.084,0.23c-0.013,0.027-0.033,0.051-0.057,0.067c0,0-0.347,0.245-0.961,0.542
					c-0.616,0.304-1.502,0.664-2.576,0.975c-1.075,0.297-2.336,0.572-3.715,0.564c-0.689,0.002-1.403-0.021-2.129-0.042
					c-0.726-0.014-1.475-0.172-2.223-0.308c-0.748-0.146-1.49-0.228-2.208-0.167c-0.721,0.034-1.413,0.254-2.076,0.535
					c-0.664,0.279-1.303,0.577-1.924,0.696c-0.619,0.128-1.217,0.122-1.769,0.119c-1.104-0.02-2.04-0.207-2.701-0.396
					c-0.659-0.184-1.046-0.393-1.046-0.393c-0.088-0.047-0.12-0.156-0.073-0.244C423.534,235.842,423.552,235.824,423.568,235.809z"
					/>
			</g>
		</g>
		<g>
			<g>
				<path fill="#414042" d="M452.233,264.61c0,0-0.272-0.345-0.566-0.962c-0.303-0.618-0.648-1.507-0.859-2.591
					c-0.1-0.542-0.208-1.13-0.189-1.763c0.01-0.632,0.191-1.313,0.354-2.016c0.162-0.701,0.259-1.422,0.167-2.137
					c-0.066-0.717-0.275-1.434-0.549-2.146c-0.264-0.712-0.55-1.424-0.688-2.135c-0.146-0.711-0.293-1.409-0.41-2.089
					c-0.247-1.355-0.193-2.646-0.089-3.757c0.119-1.111,0.321-2.046,0.513-2.705c0.188-0.658,0.367-1.041,0.367-1.041
					c0.041-0.087,0.146-0.124,0.23-0.083c0.027,0.013,0.052,0.034,0.067,0.058c0,0,0.242,0.347,0.535,0.965
					c0.299,0.618,0.652,1.506,0.955,2.583c0.289,1.078,0.556,2.341,0.537,3.719c-0.003,0.688-0.032,1.403-0.058,2.128
					c-0.021,0.725-0.185,1.473-0.324,2.219c-0.151,0.747-0.238,1.489-0.186,2.207c0.028,0.722,0.244,1.415,0.521,2.08
					c0.273,0.666,0.567,1.308,0.683,1.929c0.123,0.621,0.112,1.219,0.105,1.771c-0.028,1.104-0.222,2.039-0.417,2.698
					c-0.188,0.657-0.399,1.043-0.399,1.043c-0.048,0.087-0.156,0.119-0.244,0.07C452.267,264.644,452.248,264.627,452.233,264.61z"
					/>
			</g>
			<g>
				<path fill="#414042" d="M450.314,241.161c0,0,1.04-1.29,2.6-3.225c1.583-1.915,3.692-4.469,5.804-7.021
					c2.147-2.521,4.297-5.043,5.908-6.935c1.634-1.872,2.723-3.12,2.723-3.12c0.052-0.059,0.141-0.064,0.199-0.014
					c0.04,0.035,0.056,0.087,0.046,0.135l-0.016,0.071c0,0-0.097,0.459-0.346,1.197c-0.248,0.737-0.631,1.768-1.199,2.912
					c-0.277,0.577-0.579,1.203-0.953,1.818c-0.361,0.625-0.724,1.301-1.176,1.936c-0.444,0.641-0.862,1.337-1.362,1.981
					c-0.479,0.661-1.007,1.3-1.527,1.944c-0.543,0.625-1.078,1.257-1.646,1.845c-0.552,0.602-1.132,1.162-1.701,1.697
					c-0.562,0.542-1.156,1.021-1.713,1.485c-0.541,0.475-1.103,0.882-1.625,1.254c-1.027,0.759-1.979,1.312-2.663,1.685
					c-0.684,0.372-1.119,0.546-1.119,0.546l-0.068,0.027c-0.072,0.029-0.154-0.007-0.183-0.079
					C450.274,241.253,450.284,241.199,450.314,241.161z"/>
			</g>
			<g>
				<path fill="#414042" d="M456.956,264.1c0,0-0.272-0.345-0.566-0.962c-0.302-0.618-0.648-1.507-0.859-2.591
					c-0.099-0.542-0.209-1.13-0.189-1.763c0.01-0.633,0.191-1.313,0.353-2.016c0.162-0.702,0.259-1.422,0.167-2.137
					c-0.065-0.717-0.274-1.435-0.549-2.146c-0.263-0.712-0.549-1.423-0.688-2.134c-0.146-0.71-0.293-1.41-0.41-2.088
					c-0.246-1.357-0.194-2.646-0.089-3.757c0.118-1.112,0.32-2.047,0.513-2.706c0.187-0.658,0.367-1.041,0.367-1.041
					c0.04-0.087,0.145-0.124,0.229-0.083c0.028,0.013,0.052,0.034,0.068,0.057c0,0,0.242,0.348,0.535,0.966
					c0.299,0.617,0.652,1.506,0.954,2.582c0.289,1.078,0.557,2.341,0.538,3.72c-0.003,0.688-0.031,1.402-0.058,2.128
					c-0.021,0.725-0.184,1.473-0.324,2.219c-0.15,0.747-0.238,1.489-0.184,2.207c0.027,0.721,0.243,1.415,0.52,2.08
					c0.274,0.666,0.568,1.307,0.684,1.928c0.123,0.621,0.112,1.219,0.105,1.771c-0.028,1.104-0.223,2.039-0.417,2.696
					c-0.188,0.659-0.398,1.043-0.398,1.043c-0.049,0.088-0.157,0.119-0.244,0.071C456.989,264.134,456.971,264.118,456.956,264.1z"
					/>
			</g>
		</g>
	</g>

		<radialGradient id="SVGID_1_" cx="136.554" cy="463.4368" r="10.8826" gradientTransform="matrix(0.766 0.6428 0.6428 -0.766 73.2856 493.6313)" gradientUnits="userSpaceOnUse">
		<stop  offset="0" style="stop-color:#00AEEF"/>
		<stop  offset="0.2166" style="stop-color:#0084CB"/>
		<stop  offset="0.4532" style="stop-color:#005BAB"/>
		<stop  offset="0.6199" style="stop-color:#243E99"/>
		<stop  offset="0.7" style="stop-color:#2E3192"/>
	</radialGradient>
	<circle fill="url(#SVGID_1_)" stroke="#33789E" stroke-miterlimit="22.9256" cx="475.783" cy="226.415" r="10.882"/>
</g>
<linearGradient id="SVGID_2_" gradientUnits="userSpaceOnUse" x1="428.8923" y1="-186.3933" x2="483.6649" y2="-241.1659" gradientTransform="matrix(1 0 0 -1 -53.4077 66.4321)">
	<stop  offset="0" style="stop-color:#4798C5"/>
	<stop  offset="1" style="stop-color:#386A95"/>
</linearGradient>
<path fill="url(#SVGID_2_)" d="M420.023,242.923c-25.971,0-26.25,10.081-26.25,12.156c0,3.147,0,12.594,0,12.594h26.75v3.781
	c0,0-27.854,0-37.375,0c-7.949,0-17.938,4.833-17.938,26.25c0,19.673,7.792,27.279,15.656,27.279c2.335,0,9.344,0,9.344,0
	s0-9.764,0-13.125c0-5.49,2.722-15.654,15.406-15.654c15.909,0,19.972,0,26.53,0c3.902,0,14.906-1.696,14.906-14.406
	c0-13.452,0-17.89,0-24.219C447.055,254.426,446.516,242.923,420.023,242.923z M405.273,251.392c2.662,0,4.812,2.15,4.812,4.813
	c0,2.661-2.15,4.812-4.812,4.812s-4.813-2.15-4.813-4.812C400.46,253.542,402.611,251.392,405.273,251.392z"/>
<linearGradient id="SVGID_3_" gradientUnits="userSpaceOnUse" x1="462.156" y1="-221.3679" x2="520.7789" y2="-277.5316" gradientTransform="matrix(1 0 0 -1 -53.4077 66.4321)">
	<stop  offset="0" style="stop-color:#FAE6BA"/>
	<stop  offset="1" style="stop-color:#FFC433"/>
</linearGradient>
<path fill="url(#SVGID_3_)" d="M420.397,352.923c25.958,0,26.283-10.271,26.283-12.155c0-3.148,0-12.595,0-12.595h-26.783v-3.78
	c0,0,28.033,0,37.375,0c8.01,0,17.938-4.955,17.938-26.25c0-23.322-10.538-27.281-15.655-27.281c-2.337,0-9.345,0-9.345,0
	s0,10.217,0,13.125c0,5.491-2.632,15.657-15.405,15.657c-15.911,0-19.478,0-26.533,0c-3.893,0-14.906,1.896-14.906,14.405
	c0,14.476,0,18.265,0,24.22C393.366,343.496,396.562,352.923,420.397,352.923z M435.148,344.453c-2.662,0-4.812-2.15-4.812-4.812
	s2.148-4.812,4.812-4.812c2.66,0,4.812,2.15,4.812,4.812S437.809,344.453,435.148,344.453z"/>
<g>
	<g>
		<g>
			<g>
				<path fill="#414042" d="M449.907,332.95c-0.001,0,0.238,0.369,0.473,1.015c0.238,0.644,0.498,1.562,0.604,2.662
					c0.045,0.549,0.098,1.145,0.019,1.771c-0.07,0.628-0.318,1.288-0.548,1.972c-0.229,0.684-0.395,1.391-0.373,2.11
					c-0.004,0.721,0.136,1.454,0.339,2.189c0.191,0.733,0.407,1.47,0.478,2.189c0.076,0.723,0.155,1.432,0.206,2.119
					c0.114,1.374-0.062,2.652-0.276,3.748c-0.227,1.095-0.518,2.006-0.771,2.643c-0.249,0.638-0.467,1-0.466,1
					c-0.051,0.082-0.156,0.109-0.238,0.062c-0.026-0.018-0.048-0.039-0.062-0.064c0.001,0-0.207-0.369-0.438-1.013
					c-0.237-0.645-0.504-1.562-0.7-2.663c-0.183-1.101-0.325-2.383-0.174-3.754c0.07-0.687,0.169-1.393,0.264-2.112
					c0.09-0.72,0.325-1.448,0.538-2.177c0.224-0.729,0.382-1.459,0.397-2.18c0.042-0.721-0.105-1.432-0.315-2.12
					c-0.209-0.688-0.438-1.355-0.492-1.985c-0.062-0.63,0.007-1.224,0.066-1.771c0.135-1.097,0.419-2.009,0.676-2.646
					c0.251-0.637,0.5-1,0.499-1c0.057-0.082,0.169-0.103,0.251-0.047C449.878,332.913,449.895,332.933,449.907,332.95z"/>
			</g>
			<g>
				<path fill="#414042" d="M449.546,356.266c-0.001,0,0.446,0.143,1.154,0.466c0.709,0.323,1.695,0.811,2.773,1.495
					c0.548,0.334,1.137,0.701,1.71,1.137c0.586,0.424,1.214,0.86,1.812,1.361c0.604,0.496,1.224,1.015,1.815,1.575
					c0.607,0.546,1.186,1.139,1.771,1.726c0.564,0.605,1.135,1.206,1.659,1.832c0.545,0.607,1.011,1.273,1.498,1.882
					c0.495,0.602,0.902,1.251,1.309,1.85c0.416,0.588,0.761,1.19,1.077,1.748c0.646,1.102,1.102,2.103,1.399,2.819
					c0.3,0.72,0.428,1.17,0.428,1.17l0.021,0.07c0.021,0.074-0.022,0.152-0.099,0.174c-0.051,0.016-0.104,0-0.138-0.035
					c0,0-1.174-1.17-2.935-2.923c-1.739-1.773-4.06-4.14-6.378-6.505c-2.283-2.398-4.566-4.799-6.279-6.6
					c-1.69-1.82-2.818-3.035-2.818-3.035c-0.053-0.058-0.049-0.146,0.009-0.199c0.039-0.035,0.092-0.045,0.139-0.031
					L449.546,356.266z"/>
			</g>
			<g>
				<path fill="#414042" d="M454.654,333.129c-0.001,0,0.237,0.368,0.472,1.013c0.239,0.644,0.498,1.562,0.604,2.662
					c0.045,0.55,0.098,1.146,0.018,1.771c-0.069,0.629-0.317,1.289-0.547,1.973c-0.229,0.683-0.396,1.39-0.373,2.109
					c-0.004,0.722,0.136,1.455,0.337,2.189c0.192,0.734,0.408,1.471,0.479,2.19c0.075,0.724,0.154,1.434,0.205,2.119
					c0.114,1.375-0.063,2.652-0.276,3.748c-0.227,1.096-0.519,2.006-0.772,2.644c-0.249,0.638-0.468,1-0.467,1
					c-0.05,0.083-0.155,0.108-0.237,0.061c-0.026-0.016-0.048-0.039-0.062-0.063c0.001,0-0.207-0.369-0.438-1.013
					c-0.237-0.645-0.503-1.562-0.699-2.664c-0.184-1.101-0.325-2.383-0.174-3.754c0.069-0.686,0.169-1.393,0.265-2.111
					c0.09-0.721,0.325-1.448,0.538-2.178c0.223-0.729,0.381-1.459,0.397-2.18c0.042-0.721-0.105-1.432-0.315-2.121
					c-0.209-0.688-0.438-1.354-0.492-1.984c-0.062-0.631,0.007-1.225,0.066-1.771c0.136-1.097,0.42-2.007,0.677-2.646
					c0.251-0.638,0.5-0.999,0.499-0.999c0.057-0.082,0.169-0.104,0.251-0.047C454.624,333.092,454.642,333.109,454.654,333.129z"/>
			</g>
		</g>
		<g>
			<g>
				<path fill="#414042" d="M423.014,358.626c0,0,0.371-0.235,1.017-0.465c0.646-0.234,1.565-0.485,2.667-0.584
					c0.549-0.041,1.146-0.088,1.772-0.004c0.628,0.075,1.286,0.328,1.967,0.562c0.682,0.233,1.388,0.405,2.108,0.391
					c0.721,0.008,1.455-0.125,2.19-0.322c0.736-0.187,1.474-0.396,2.194-0.461c0.722-0.069,1.433-0.145,2.12-0.188
					c1.375-0.104,2.651,0.083,3.746,0.305c1.093,0.234,2.002,0.532,2.637,0.792c0.635,0.254,0.996,0.474,0.996,0.474
					c0.082,0.052,0.107,0.156,0.059,0.238c-0.017,0.027-0.039,0.048-0.063,0.062c0,0-0.371,0.204-1.017,0.431
					c-0.646,0.232-1.565,0.491-2.668,0.68c-1.103,0.176-2.387,0.309-3.756,0.146c-0.685-0.074-1.392-0.179-2.108-0.279
					c-0.72-0.096-1.446-0.336-2.175-0.555c-0.727-0.229-1.455-0.394-2.176-0.414c-0.72-0.047-1.432,0.095-2.123,0.299
					c-0.689,0.205-1.357,0.43-1.988,0.479c-0.631,0.057-1.225-0.017-1.771-0.08c-1.096-0.145-2.004-0.435-2.639-0.696
					c-0.637-0.256-0.996-0.507-0.996-0.507c-0.082-0.058-0.103-0.169-0.045-0.25C422.977,358.655,422.994,358.639,423.014,358.626z"
					/>
			</g>
			<g>
				<path fill="#414042" d="M446.535,359.17c0,0,1.173,1.168,2.935,2.922c1.74,1.772,4.059,4.139,6.378,6.504
					c2.283,2.399,4.565,4.801,6.278,6.602c1.69,1.82,2.817,3.034,2.817,3.034c0.054,0.058,0.051,0.146-0.007,0.2
					c-0.039,0.035-0.093,0.045-0.14,0.03l-0.068-0.022c0,0-0.447-0.145-1.154-0.469c-0.708-0.323-1.691-0.812-2.771-1.497
					c-0.545-0.337-1.136-0.701-1.709-1.138c-0.583-0.427-1.219-0.855-1.803-1.371c-0.59-0.511-1.239-0.998-1.827-1.562
					c-0.607-0.547-1.188-1.137-1.774-1.723c-0.564-0.605-1.137-1.204-1.662-1.83c-0.539-0.613-1.037-1.248-1.511-1.869
					c-0.479-0.616-0.896-1.258-1.297-1.859c-0.416-0.588-0.763-1.188-1.077-1.747c-0.647-1.103-1.1-2.104-1.397-2.824
					c-0.299-0.72-0.426-1.172-0.427-1.172l-0.02-0.069c-0.021-0.075,0.021-0.153,0.098-0.175
					C446.447,359.118,446.501,359.135,446.535,359.17z"/>
			</g>
			<g>
				<path fill="#414042" d="M423.027,363.377c0,0,0.371-0.236,1.018-0.466c0.646-0.233,1.564-0.485,2.666-0.584
					c0.55-0.041,1.146-0.088,1.772-0.004c0.628,0.075,1.286,0.328,1.967,0.562c0.683,0.233,1.389,0.405,2.108,0.39
					c0.721,0.009,1.455-0.124,2.19-0.321c0.736-0.188,1.474-0.396,2.194-0.462c0.722-0.069,1.434-0.145,2.12-0.189
					c1.375-0.104,2.652,0.084,3.746,0.305c1.093,0.234,2.002,0.533,2.637,0.792c0.635,0.254,0.996,0.474,0.996,0.474
					c0.082,0.052,0.108,0.156,0.06,0.238c-0.018,0.027-0.039,0.048-0.064,0.062c0,0-0.371,0.204-1.016,0.431
					c-0.646,0.233-1.566,0.492-2.668,0.681c-1.104,0.175-2.388,0.308-3.757,0.146c-0.685-0.075-1.392-0.179-2.108-0.28
					c-0.719-0.095-1.446-0.336-2.174-0.553c-0.728-0.229-1.455-0.394-2.177-0.414c-0.72-0.047-1.432,0.094-2.123,0.299
					c-0.688,0.204-1.357,0.43-1.987,0.479c-0.631,0.057-1.225-0.017-1.771-0.08c-1.096-0.145-2.004-0.435-2.639-0.695
					c-0.636-0.256-0.996-0.508-0.996-0.508c-0.082-0.058-0.102-0.168-0.045-0.25C422.99,363.406,423.009,363.389,423.027,363.377z"
					/>
			</g>
		</g>
	</g>

		<radialGradient id="SVGID_4_" cx="188.1121" cy="695.7063" r="10.8826" gradientTransform="matrix(-0.7193 0.6947 0.6947 0.7193 110.5393 -245.063)" gradientUnits="userSpaceOnUse">
		<stop  offset="0" style="stop-color:#F9ED32"/>
		<stop  offset="0.0943" style="stop-color:#FBEE2B"/>
		<stop  offset="0.7" style="stop-color:#FFF200"/>
	</radialGradient>
	<circle fill="url(#SVGID_4_)" stroke="#D9D850" stroke-miterlimit="22.9256" cx="458.538" cy="386.04" r="10.882"/>
</g>
<g>
	<g>
		<g>
			<g>
				<path fill="#414042" d="M413.901,356.062c0-0.001-0.377,0.225-1.029,0.436c-0.651,0.218-1.579,0.443-2.681,0.511
					c-0.551,0.025-1.147,0.059-1.772-0.043c-0.625-0.095-1.275-0.364-1.95-0.615c-0.676-0.253-1.375-0.443-2.098-0.447
					c-0.72-0.028-1.458,0.084-2.199,0.263c-0.74,0.165-1.482,0.354-2.207,0.399c-0.724,0.051-1.436,0.105-2.125,0.133
					c-1.377,0.065-2.647-0.155-3.734-0.407c-1.086-0.265-1.987-0.588-2.614-0.863c-0.628-0.271-0.983-0.502-0.983-0.502
					c-0.08-0.053-0.104-0.159-0.051-0.239c0.018-0.026,0.04-0.046,0.066-0.06c0,0,0.376-0.195,1.027-0.404
					c0.65-0.214,1.578-0.448,2.686-0.605c1.106-0.145,2.393-0.242,3.757-0.043c0.684,0.095,1.386,0.217,2.103,0.338
					c0.715,0.114,1.436,0.375,2.156,0.613c0.722,0.248,1.445,0.432,2.164,0.473c0.719,0.066,1.435-0.055,2.13-0.24
					c0.696-0.186,1.37-0.393,2.001-0.423c0.633-0.04,1.224,0.049,1.77,0.129c1.091,0.173,1.991,0.487,2.619,0.768
					c0.628,0.273,0.98,0.534,0.98,0.533c0.08,0.06,0.098,0.172,0.038,0.252C413.939,356.032,413.921,356.051,413.901,356.062z"/>
			</g>
			<g>
				<path fill="#414042" d="M390.616,354.886c0,0-0.159,0.441-0.507,1.14c-0.348,0.696-0.868,1.666-1.591,2.719
					c-0.354,0.536-0.741,1.111-1.196,1.669c-0.443,0.571-0.902,1.185-1.424,1.766c-0.517,0.587-1.058,1.186-1.637,1.759
					c-0.567,0.589-1.181,1.146-1.786,1.71c-0.625,0.543-1.246,1.092-1.891,1.595c-0.626,0.522-1.309,0.964-1.933,1.432
					c-0.618,0.475-1.281,0.858-1.894,1.243c-0.602,0.396-1.217,0.718-1.783,1.016c-1.124,0.607-2.141,1.026-2.869,1.301
					s-1.185,0.387-1.185,0.387l-0.069,0.019c-0.076,0.019-0.152-0.027-0.171-0.104c-0.014-0.053,0.005-0.104,0.041-0.138
					c0,0,1.209-1.132,3.022-2.831c1.833-1.676,4.278-3.911,6.723-6.146c2.479-2.197,4.957-4.396,6.816-6.045
					c1.878-1.627,3.131-2.711,3.131-2.711c0.06-0.052,0.148-0.045,0.199,0.016c0.035,0.039,0.043,0.094,0.026,0.14L390.616,354.886z
					"/>
			</g>
			<g>
				<path fill="#414042" d="M413.559,360.801c0-0.001-0.377,0.225-1.029,0.436c-0.652,0.217-1.579,0.443-2.682,0.51
					c-0.552,0.025-1.147,0.059-1.772-0.044c-0.625-0.093-1.276-0.363-1.951-0.614c-0.675-0.253-1.375-0.444-2.097-0.446
					c-0.72-0.029-1.458,0.083-2.2,0.26c-0.741,0.167-1.482,0.357-2.207,0.401c-0.724,0.051-1.437,0.104-2.125,0.132
					c-1.377,0.066-2.648-0.156-3.735-0.408c-1.087-0.264-1.987-0.587-2.614-0.863c-0.628-0.271-0.983-0.502-0.983-0.502
					c-0.081-0.052-0.104-0.158-0.051-0.238c0.017-0.026,0.04-0.046,0.066-0.061c0,0,0.376-0.195,1.026-0.402
					c0.652-0.216,1.579-0.448,2.687-0.606c1.105-0.146,2.394-0.242,3.758-0.043c0.683,0.094,1.387,0.217,2.102,0.338
					c0.716,0.115,1.437,0.376,2.157,0.613c0.721,0.249,1.444,0.433,2.164,0.475c0.718,0.066,1.434-0.056,2.13-0.242
					c0.696-0.184,1.371-0.391,2.001-0.422c0.632-0.041,1.224,0.049,1.77,0.129c1.091,0.173,1.991,0.488,2.618,0.769
					c0.629,0.272,0.982,0.534,0.982,0.533c0.08,0.06,0.097,0.172,0.038,0.252C413.597,360.771,413.579,360.788,413.559,360.801z"/>
			</g>
		</g>
		<g>
			<g>
				<path fill="#414042" d="M389.181,328.288c0,0,0.222,0.381,0.428,1.033c0.212,0.652,0.432,1.582,0.49,2.686
					c0.021,0.551,0.049,1.146-0.058,1.771c-0.097,0.624-0.373,1.273-0.63,1.945c-0.257,0.674-0.454,1.373-0.462,2.094
					c-0.034,0.72,0.073,1.459,0.245,2.201c0.161,0.742,0.345,1.486,0.385,2.209c0.045,0.725,0.094,1.438,0.116,2.126
					c0.055,1.378-0.176,2.647-0.437,3.733c-0.271,1.084-0.602,1.98-0.884,2.606c-0.275,0.625-0.508,0.979-0.508,0.979
					c-0.053,0.08-0.16,0.104-0.24,0.051c-0.025-0.019-0.046-0.041-0.06-0.066c0,0-0.191-0.378-0.396-1.03
					c-0.209-0.652-0.437-1.582-0.586-2.689c-0.137-1.107-0.224-2.396-0.015-3.758c0.099-0.683,0.227-1.385,0.353-2.101
					c0.121-0.715,0.388-1.434,0.631-2.151c0.254-0.72,0.442-1.441,0.489-2.16c0.072-0.718-0.044-1.436-0.225-2.132
					c-0.18-0.698-0.381-1.373-0.408-2.005c-0.036-0.633,0.059-1.224,0.143-1.769c0.181-1.09,0.503-1.986,0.787-2.613
					c0.278-0.625,0.542-0.977,0.541-0.977c0.061-0.08,0.174-0.097,0.252-0.037C389.153,328.252,389.169,328.27,389.181,328.288z"/>
			</g>
			<g>
				<path fill="#414042" d="M387.818,351.777c0,0-1.209,1.133-3.023,2.831c-1.834,1.677-4.277,3.911-6.723,6.146
					c-2.479,2.197-4.957,4.396-6.815,6.044c-1.879,1.627-3.131,2.711-3.131,2.711c-0.059,0.051-0.147,0.045-0.2-0.015
					c-0.034-0.041-0.042-0.094-0.025-0.141l0.023-0.068c0,0,0.16-0.44,0.51-1.137c0.348-0.696,0.871-1.663,1.593-2.717
					c0.354-0.533,0.74-1.111,1.196-1.669c0.445-0.568,0.897-1.188,1.434-1.753c0.529-0.572,1.04-1.204,1.625-1.772
					c0.568-0.588,1.178-1.146,1.784-1.713c0.625-0.544,1.243-1.095,1.887-1.598c0.631-0.519,1.283-0.993,1.92-1.444
					c0.632-0.458,1.289-0.851,1.903-1.23c0.603-0.396,1.214-0.721,1.784-1.017c1.124-0.607,2.142-1.023,2.871-1.298
					c0.729-0.273,1.186-0.385,1.186-0.385l0.071-0.019c0.076-0.019,0.151,0.027,0.171,0.104
					C387.871,351.691,387.854,351.743,387.818,351.777z"/>
			</g>
			<g>
				<path fill="#414042" d="M384.434,328.137c0,0,0.222,0.379,0.428,1.033c0.212,0.651,0.432,1.582,0.49,2.684
					c0.021,0.552,0.049,1.148-0.058,1.773c-0.097,0.624-0.373,1.272-0.629,1.944c-0.258,0.674-0.454,1.373-0.462,2.094
					c-0.034,0.721,0.073,1.459,0.245,2.201c0.161,0.742,0.345,1.486,0.385,2.209c0.045,0.726,0.095,1.438,0.116,2.126
					c0.055,1.378-0.176,2.647-0.436,3.732c-0.272,1.085-0.603,1.981-0.884,2.608c-0.275,0.625-0.509,0.979-0.508,0.979
					c-0.053,0.08-0.16,0.104-0.24,0.051c-0.025-0.018-0.046-0.041-0.06-0.065c0,0-0.191-0.378-0.396-1.031
					c-0.211-0.652-0.438-1.582-0.587-2.689c-0.136-1.106-0.224-2.396-0.015-3.758c0.099-0.682,0.228-1.385,0.354-2.1
					c0.119-0.715,0.386-1.435,0.629-2.152c0.254-0.719,0.442-1.44,0.489-2.16c0.072-0.718-0.045-1.435-0.226-2.132
					c-0.18-0.697-0.381-1.373-0.408-2.005c-0.036-0.632,0.059-1.223,0.142-1.768c0.182-1.09,0.503-1.987,0.787-2.613
					c0.278-0.625,0.542-0.978,0.541-0.978c0.061-0.08,0.174-0.097,0.252-0.037C384.406,328.1,384.422,328.116,384.434,328.137z"/>
			</g>
		</g>
	</g>

		<radialGradient id="SVGID_5_" cx="-295.8723" cy="427.4739" r="10.8833" gradientTransform="matrix(-0.6691 -0.7431 -0.7431 0.6691 480.2315 -143.0495)" gradientUnits="userSpaceOnUse">
		<stop  offset="0" style="stop-color:#F17F62"/>
		<stop  offset="0.1256" style="stop-color:#F17354"/>
		<stop  offset="0.5128" style="stop-color:#EF4A2E"/>
		<stop  offset="0.7" style="stop-color:#EE3624"/>
	</radialGradient>
	<circle fill="url(#SVGID_5_)" stroke="#9E3332" stroke-miterlimit="22.9256" cx="360.545" cy="362.835" r="10.882"/>
</g>
<g>
	<g>
		<g>
			<g>
				<path fill="#414042" d="M363.611,293.012c0,0-0.232-0.373-0.454-1.021c-0.229-0.647-0.471-1.57-0.557-2.672
					c-0.036-0.55-0.078-1.146,0.013-1.772c0.082-0.626,0.341-1.282,0.581-1.961c0.241-0.679,0.419-1.383,0.41-2.104
					c0.017-0.72-0.109-1.457-0.299-2.194c-0.181-0.738-0.383-1.478-0.44-2.199c-0.063-0.724-0.13-1.436-0.169-2.122
					c-0.09-1.376,0.109-2.651,0.342-3.742c0.246-1.091,0.553-1.997,0.818-2.629c0.26-0.633,0.483-0.992,0.483-0.992
					c0.052-0.081,0.158-0.105,0.239-0.055c0.026,0.016,0.047,0.039,0.062,0.064c0,0,0.2,0.372,0.421,1.021
					c0.227,0.647,0.477,1.571,0.652,2.675c0.165,1.104,0.284,2.389,0.109,3.756c-0.082,0.685-0.193,1.391-0.301,2.107
					c-0.103,0.718-0.352,1.441-0.576,2.167c-0.235,0.725-0.407,1.452-0.436,2.172c-0.055,0.719,0.08,1.433,0.278,2.125
					c0.197,0.693,0.415,1.363,0.458,1.994c0.052,0.631-0.026,1.224-0.097,1.771c-0.154,1.095-0.454,2-0.722,2.632
					c-0.263,0.634-0.518,0.991-0.518,0.991c-0.058,0.081-0.17,0.101-0.251,0.042C363.64,293.05,363.624,293.031,363.611,293.012z"/>
			</g>
			<g>
				<path fill="#414042" d="M364.38,269.709c0,0-0.444-0.151-1.146-0.487c-0.703-0.335-1.681-0.839-2.747-1.543
					c-0.542-0.344-1.123-0.722-1.689-1.167c-0.579-0.433-1.198-0.881-1.789-1.393c-0.596-0.507-1.203-1.036-1.787-1.606
					c-0.599-0.557-1.166-1.16-1.741-1.756c-0.555-0.616-1.113-1.228-1.627-1.862c-0.533-0.617-0.987-1.292-1.464-1.908
					c-0.485-0.608-0.882-1.266-1.276-1.87c-0.406-0.596-0.739-1.204-1.047-1.767c-0.627-1.113-1.064-2.122-1.351-2.845
					c-0.286-0.725-0.407-1.177-0.407-1.177l-0.02-0.07c-0.02-0.075,0.025-0.153,0.101-0.173c0.051-0.015,0.104,0.003,0.138,0.039
					c0,0,1.153,1.188,2.883,2.973c1.708,1.804,3.985,4.209,6.263,6.615c2.241,2.438,4.481,4.879,6.162,6.709
					c1.659,1.85,2.766,3.083,2.766,3.083c0.052,0.058,0.047,0.146-0.012,0.2c-0.039,0.035-0.093,0.044-0.139,0.028L364.38,269.709z"
					/>
			</g>
			<g>
				<path fill="#414042" d="M358.868,292.752c0,0-0.231-0.373-0.454-1.021c-0.229-0.647-0.471-1.57-0.557-2.672
					c-0.035-0.551-0.077-1.146,0.013-1.772c0.082-0.627,0.341-1.282,0.581-1.961c0.241-0.68,0.42-1.384,0.411-2.104
					c0.016-0.721-0.109-1.457-0.299-2.195c-0.181-0.737-0.382-1.477-0.439-2.198c-0.062-0.724-0.13-1.435-0.169-2.122
					c-0.089-1.376,0.11-2.651,0.342-3.743c0.246-1.091,0.554-1.997,0.819-2.629c0.26-0.633,0.484-0.992,0.484-0.992
					c0.051-0.081,0.157-0.106,0.238-0.055c0.026,0.016,0.048,0.039,0.062,0.064c0,0,0.201,0.372,0.421,1.021
					c0.226,0.647,0.476,1.57,0.653,2.675c0.164,1.104,0.282,2.389,0.107,3.756c-0.082,0.684-0.192,1.39-0.301,2.107
					c-0.103,0.718-0.351,1.441-0.576,2.168c-0.235,0.725-0.407,1.451-0.436,2.172c-0.055,0.719,0.08,1.433,0.277,2.125
					s0.415,1.362,0.458,1.994c0.053,0.631-0.026,1.223-0.097,1.771c-0.154,1.094-0.454,2-0.723,2.632
					c-0.262,0.633-0.518,0.991-0.518,0.991c-0.058,0.081-0.17,0.1-0.251,0.042C358.897,292.791,358.88,292.772,358.868,292.752z"/>
			</g>
		</g>
		<g>
			<g>
				<path fill="#414042" d="M390.948,267.811c0,0-0.375,0.229-1.024,0.446c-0.648,0.224-1.573,0.459-2.676,0.537
					c-0.551,0.032-1.146,0.068-1.772-0.026c-0.626-0.086-1.28-0.351-1.957-0.596c-0.678-0.246-1.379-0.43-2.102-0.426
					c-0.72-0.021-1.457,0.099-2.196,0.282c-0.739,0.175-1.479,0.371-2.202,0.424c-0.724,0.058-1.436,0.118-2.124,0.152
					c-1.376,0.079-2.65-0.13-3.739-0.37c-1.089-0.254-1.992-0.567-2.623-0.838c-0.631-0.265-0.988-0.491-0.988-0.491
					c-0.081-0.051-0.104-0.157-0.054-0.238c0.017-0.026,0.04-0.047,0.065-0.062c0,0,0.374-0.197,1.022-0.414
					c0.649-0.221,1.575-0.464,2.68-0.633c1.104-0.156,2.392-0.266,3.758-0.081c0.684,0.087,1.389,0.203,2.104,0.317
					c0.717,0.106,1.439,0.36,2.163,0.592c0.723,0.241,1.449,0.418,2.168,0.452c0.719,0.06,1.434-0.07,2.127-0.263
					c0.694-0.192,1.366-0.405,1.997-0.442c0.631-0.047,1.223,0.037,1.771,0.11c1.092,0.162,1.995,0.469,2.626,0.741
					c0.63,0.268,0.986,0.524,0.986,0.524c0.081,0.058,0.1,0.171,0.041,0.251C390.986,267.782,390.967,267.798,390.948,267.811z"/>
			</g>
			<g>
				<path fill="#414042" d="M367.44,266.858c0,0-1.153-1.188-2.883-2.973c-1.708-1.804-3.986-4.21-6.264-6.615
					c-2.24-2.438-4.48-4.879-6.162-6.709c-1.658-1.85-2.765-3.083-2.765-3.083c-0.052-0.058-0.047-0.146,0.011-0.199
					c0.039-0.035,0.094-0.044,0.141-0.028l0.068,0.023c0,0,0.444,0.152,1.146,0.488s1.678,0.842,2.744,1.545
					c0.54,0.346,1.124,0.721,1.688,1.167c0.576,0.437,1.204,0.877,1.778,1.403c0.582,0.519,1.222,1.018,1.801,1.594
					c0.598,0.557,1.168,1.157,1.744,1.753c0.555,0.615,1.116,1.225,1.63,1.859c0.528,0.622,1.015,1.265,1.479,1.895
					c0.469,0.624,0.873,1.273,1.265,1.881c0.405,0.597,0.741,1.202,1.046,1.768c0.628,1.113,1.062,2.123,1.348,2.848
					c0.286,0.725,0.406,1.179,0.406,1.179l0.02,0.071c0.02,0.075-0.025,0.152-0.102,0.172
					C367.527,266.909,367.475,266.893,367.44,266.858z"/>
			</g>
			<g>
				<path fill="#414042" d="M391.018,263.062c0,0-0.375,0.229-1.024,0.446c-0.648,0.224-1.574,0.459-2.676,0.537
					c-0.551,0.031-1.147,0.068-1.773-0.026c-0.626-0.086-1.279-0.351-1.957-0.596c-0.677-0.246-1.38-0.43-2.101-0.426
					c-0.72-0.021-1.457,0.099-2.197,0.282c-0.739,0.175-1.479,0.371-2.202,0.424c-0.724,0.058-1.436,0.118-2.124,0.152
					c-1.376,0.08-2.649-0.129-3.738-0.37c-1.089-0.253-1.993-0.566-2.623-0.838c-0.631-0.265-0.988-0.49-0.988-0.49
					c-0.081-0.052-0.105-0.158-0.054-0.239c0.017-0.026,0.04-0.047,0.064-0.062c0,0,0.374-0.197,1.023-0.414
					c0.648-0.221,1.575-0.464,2.68-0.633c1.105-0.156,2.392-0.266,3.757-0.081c0.684,0.087,1.389,0.203,2.105,0.317
					c0.717,0.106,1.438,0.36,2.163,0.592c0.723,0.241,1.449,0.417,2.168,0.452c0.719,0.06,1.433-0.07,2.127-0.263
					s1.366-0.405,1.997-0.443c0.631-0.046,1.223,0.037,1.77,0.111c1.093,0.161,1.997,0.469,2.627,0.741
					c0.63,0.268,0.987,0.524,0.987,0.524c0.081,0.058,0.099,0.171,0.041,0.251C391.056,263.033,391.038,263.049,391.018,263.062z"/>
			</g>
		</g>
	</g>

		<radialGradient id="SVGID_6_" cx="-91.3489" cy="281.6614" r="10.8816" gradientTransform="matrix(0.7314 -0.682 -0.682 -0.7314 598.8121 402.4905)" gradientUnits="userSpaceOnUse">
		<stop  offset="0" style="stop-color:#B2DCBD"/>
		<stop  offset="0.0212" style="stop-color:#B0DBB8"/>
		<stop  offset="0.3541" style="stop-color:#9DCF79"/>
		<stop  offset="0.5877" style="stop-color:#92C94D"/>
		<stop  offset="0.7" style="stop-color:#8DC63F"/>
	</radialGradient>
	<circle fill="url(#SVGID_6_)" stroke="#6E9F31" stroke-miterlimit="22.9256" cx="339.907" cy="258.782" r="10.882"/>
</g>
<g>
	<g>
		<g>
			<g>
				<path fill="#414042" d="M478.732,299.833c-0.001,0,0.263,0.352,0.541,0.978c0.283,0.625,0.605,1.523,0.787,2.613
					c0.084,0.545,0.178,1.135,0.142,1.768c-0.025,0.631-0.228,1.308-0.406,2.004c-0.182,0.697-0.299,1.414-0.227,2.132
					c0.047,0.72,0.236,1.441,0.489,2.16c0.244,0.721,0.51,1.438,0.631,2.152c0.125,0.714,0.254,1.417,0.354,2.099
					c0.209,1.363,0.12,2.65-0.017,3.758c-0.147,1.108-0.376,2.037-0.586,2.691c-0.203,0.652-0.396,1.029-0.395,1.029
					c-0.044,0.086-0.148,0.12-0.234,0.076c-0.027-0.015-0.05-0.035-0.066-0.06c0.001,0-0.231-0.354-0.508-0.979
					c-0.281-0.625-0.61-1.522-0.884-2.607c-0.26-1.084-0.491-2.354-0.436-3.732c0.021-0.688,0.07-1.399,0.115-2.125
					c0.039-0.725,0.224-1.467,0.386-2.209c0.171-0.742,0.277-1.481,0.243-2.201c-0.009-0.723-0.205-1.421-0.463-2.094
					c-0.257-0.673-0.532-1.321-0.63-1.945c-0.105-0.624-0.079-1.223-0.058-1.772c0.059-1.103,0.277-2.031,0.489-2.685
					c0.206-0.653,0.43-1.032,0.429-1.032c0.051-0.086,0.161-0.114,0.247-0.064C478.699,299.798,478.719,299.814,478.732,299.833z"/>
			</g>
			<g>
				<path fill="#414042" d="M479.997,323.114c0,0,0.456,0.111,1.187,0.386c0.729,0.271,1.747,0.688,2.871,1.298
					c0.568,0.295,1.182,0.621,1.784,1.016c0.614,0.381,1.271,0.773,1.902,1.231c0.639,0.451,1.29,0.927,1.921,1.443
					c0.645,0.502,1.263,1.053,1.888,1.599c0.604,0.563,1.216,1.124,1.782,1.712c0.587,0.567,1.097,1.199,1.625,1.771
					c0.536,0.565,0.988,1.187,1.435,1.754c0.457,0.558,0.842,1.136,1.197,1.668c0.723,1.055,1.243,2.021,1.593,2.718
					c0.349,0.694,0.509,1.137,0.509,1.137l0.024,0.067c0.025,0.072-0.012,0.154-0.085,0.182c-0.051,0.018-0.104,0.006-0.142-0.026
					c0,0-1.252-1.084-3.131-2.711c-1.858-1.647-4.337-3.846-6.815-6.043c-2.443-2.235-4.89-4.471-6.724-6.146
					c-1.812-1.699-3.021-2.831-3.021-2.831c-0.058-0.055-0.061-0.144-0.008-0.199c0.037-0.038,0.09-0.053,0.138-0.041
					L479.997,323.114z"/>
			</g>
			<g>
				<path fill="#414042" d="M483.479,299.679c0,0,0.264,0.352,0.541,0.978c0.285,0.625,0.605,1.523,0.788,2.613
					c0.083,0.545,0.177,1.136,0.142,1.768c-0.026,0.633-0.229,1.308-0.408,2.006c-0.181,0.696-0.297,1.413-0.225,2.132
					c0.046,0.719,0.235,1.44,0.488,2.16c0.244,0.72,0.51,1.438,0.631,2.151c0.125,0.715,0.254,1.418,0.353,2.101
					c0.21,1.362,0.122,2.649-0.015,3.758c-0.148,1.107-0.377,2.037-0.586,2.69c-0.205,0.652-0.396,1.029-0.396,1.029
					c-0.043,0.086-0.146,0.12-0.231,0.076c-0.027-0.014-0.051-0.035-0.066-0.06c0,0-0.231-0.354-0.509-0.979
					c-0.281-0.625-0.611-1.523-0.884-2.607c-0.26-1.085-0.49-2.354-0.437-3.731c0.022-0.689,0.071-1.402,0.117-2.126
					c0.039-0.725,0.224-1.468,0.385-2.21c0.172-0.742,0.278-1.481,0.244-2.201c-0.009-0.721-0.205-1.42-0.463-2.094
					c-0.256-0.672-0.531-1.321-0.629-1.945c-0.105-0.625-0.08-1.222-0.058-1.773c0.059-1.103,0.277-2.03,0.489-2.685
					c0.206-0.653,0.43-1.032,0.43-1.032c0.05-0.086,0.16-0.114,0.246-0.063C483.447,299.644,483.466,299.659,483.479,299.679z"/>
			</g>
		</g>
		<g>
			<g>
				<path fill="#414042" d="M453.695,327.32c0,0.001,0.354-0.26,0.981-0.533c0.628-0.278,1.527-0.595,2.618-0.768
					c0.547-0.08,1.138-0.169,1.77-0.129c0.631,0.031,1.305,0.238,2.001,0.423c0.696,0.188,1.412,0.308,2.13,0.241
					c0.72-0.041,1.443-0.226,2.164-0.474c0.721-0.237,1.441-0.499,2.157-0.612c0.716-0.121,1.419-0.244,2.103-0.338
					c1.363-0.199,2.65-0.103,3.759,0.043c1.104,0.156,2.032,0.392,2.686,0.604c0.65,0.209,1.027,0.404,1.027,0.404
					c0.084,0.043,0.118,0.147,0.073,0.232c-0.015,0.027-0.034,0.051-0.061,0.065c0,0-0.355,0.23-0.982,0.502
					c-0.628,0.276-1.527,0.6-2.614,0.863c-1.086,0.252-2.358,0.474-3.735,0.408c-0.688-0.027-1.401-0.082-2.124-0.134
					c-0.725-0.045-1.467-0.233-2.207-0.399c-0.742-0.178-1.479-0.291-2.199-0.262c-0.722,0.004-1.422,0.193-2.098,0.446
					c-0.674,0.251-1.325,0.521-1.951,0.615c-0.624,0.102-1.221,0.069-1.771,0.043c-1.104-0.066-2.029-0.293-2.683-0.51
					c-0.65-0.211-1.028-0.438-1.028-0.437c-0.085-0.052-0.113-0.162-0.062-0.248C453.66,327.353,453.677,327.334,453.695,327.32z"/>
			</g>
			<g>
				<path fill="#414042" d="M477.197,326.222c0,0,1.252,1.084,3.131,2.71c1.859,1.647,4.339,3.847,6.816,6.045
					c2.444,2.234,4.889,4.47,6.723,6.146c1.814,1.697,3.023,2.83,3.023,2.83c0.057,0.054,0.06,0.144,0.006,0.199
					c-0.035,0.039-0.088,0.053-0.137,0.041l-0.07-0.018c0,0-0.455-0.113-1.184-0.388c-0.729-0.273-1.744-0.691-2.869-1.301
					c-0.566-0.297-1.183-0.62-1.783-1.016c-0.612-0.384-1.275-0.77-1.894-1.242c-0.624-0.467-1.308-0.908-1.934-1.432
					c-0.645-0.502-1.266-1.052-1.891-1.595c-0.605-0.563-1.219-1.122-1.785-1.711c-0.581-0.571-1.121-1.172-1.637-1.759
					c-0.522-0.581-0.981-1.192-1.426-1.764c-0.454-0.559-0.843-1.133-1.195-1.669c-0.724-1.055-1.243-2.022-1.591-2.72
					c-0.349-0.696-0.508-1.14-0.508-1.14l-0.023-0.068c-0.026-0.072,0.012-0.153,0.085-0.181
					C477.106,326.178,477.16,326.189,477.197,326.222z"/>
			</g>
			<g>
				<path fill="#414042" d="M454.039,332.059c0,0,0.354-0.262,0.982-0.534c0.627-0.279,1.527-0.595,2.619-0.769
					c0.545-0.079,1.137-0.168,1.768-0.128c0.632,0.03,1.308,0.236,2.002,0.423c0.696,0.186,1.412,0.308,2.13,0.239
					c0.721-0.041,1.443-0.225,2.164-0.473c0.723-0.238,1.441-0.499,2.157-0.614c0.715-0.12,1.42-0.242,2.103-0.337
					c1.364-0.199,2.651-0.103,3.758,0.042c1.106,0.157,2.035,0.393,2.686,0.606c0.652,0.209,1.027,0.401,1.027,0.401
					c0.086,0.046,0.119,0.148,0.075,0.234c-0.016,0.027-0.036,0.05-0.061,0.066c0,0-0.354,0.229-0.983,0.5
					c-0.627,0.276-1.527,0.601-2.613,0.864c-1.088,0.252-2.359,0.474-3.736,0.407c-0.688-0.025-1.399-0.081-2.125-0.132
					c-0.723-0.045-1.465-0.234-2.206-0.4c-0.74-0.178-1.479-0.291-2.199-0.262c-0.722,0.004-1.423,0.194-2.097,0.447
					c-0.676,0.252-1.326,0.521-1.951,0.615c-0.625,0.102-1.222,0.069-1.772,0.044c-1.103-0.066-2.029-0.293-2.681-0.511
					c-0.651-0.211-1.028-0.437-1.028-0.437c-0.086-0.051-0.113-0.161-0.062-0.246C454.005,332.09,454.021,332.072,454.039,332.059z"
					/>
			</g>
		</g>
	</g>

		<radialGradient id="SVGID_7_" cx="-86.3997" cy="685.0432" r="10.8828" gradientTransform="matrix(-0.6691 0.7431 0.7431 0.6691 -60.8205 -61.9702)" gradientUnits="userSpaceOnUse">
		<stop  offset="0" style="stop-color:#A7A9AC"/>
		<stop  offset="0.2166" style="stop-color:#8380A4"/>
		<stop  offset="0.4532" style="stop-color:#5B569A"/>
		<stop  offset="0.6199" style="stop-color:#3C3B93"/>
		<stop  offset="0.7" style="stop-color:#2E3192"/>
	</radialGradient>
	<circle fill="url(#SVGID_7_)" stroke="#2C2A70" stroke-miterlimit="22.9256" cx="506.046" cy="332.189" r="10.882"/>
</g>
</svg>
